<?xml version="1.0" encoding="UTF-8" standalone="no"?>
<svg
   xmlns:dc="http://purl.org/dc/elements/1.1/"
   xmlns:cc="http://creativecommons.org/ns#"
   xmlns:rdf="http://www.w3.org/1999/02/22-rdf-syntax-ns#"
   xmlns:svg="http://www.w3.org/2000/svg"
   xmlns="http://www.w3.org/2000/svg"
   xmlns:xlink="http://www.w3.org/1999/xlink"
   xmlns:sodipodi="http://sodipodi.sourceforge.net/DTD/sodipodi-0.dtd"
   xmlns:inkscape="http://www.inkscape.org/namespaces/inkscape"
   height="671"
   version="1.1"
   viewBox="56.6209 54.0603 699.00001 671.00002"
   width="699"
   id="svg957"
   sodipodi:docname="Bloch_Sphere.svg"
   inkscape:version="1.0.1 (c497b03c, 2020-09-10)"
   inkscape:export-filename="/Users/benoitpatra/Code/blog-perso/assets/images/legacy-wp-content/2020/05/qubit-preview.png"
   inkscape:export-xdpi="96"
   inkscape:export-ydpi="96">
  <metadata
     id="metadata961">
    <rdf:RDF>
      <cc:Work
         rdf:about="">
        <dc:format>image/svg+xml</dc:format>
        <dc:type
           rdf:resource="http://purl.org/dc/dcmitype/StillImage" />
        <dc:title></dc:title>
      </cc:Work>
    </rdf:RDF>
  </metadata>
  <sodipodi:namedview
     pagecolor="#ffffff"
     bordercolor="#666666"
     borderopacity="1"
     objecttolerance="10"
     gridtolerance="10"
     guidetolerance="10"
     inkscape:pageopacity="0"
     inkscape:pageshadow="2"
     inkscape:window-width="1920"
     inkscape:window-height="1035"
     id="namedview959"
     showgrid="false"
     inkscape:zoom="18.688667"
     inkscape:cx="344.54308"
     inkscape:cy="160.32051"
     inkscape:window-x="0"
     inkscape:window-y="23"
     inkscape:window-maximized="1"
     inkscape:current-layer="page1" />
  <defs
     id="defs846">
    <path
       d="m 5.316,-6.036 c 0,-1.224 -0.384,-2.412 -1.368,-2.412 -1.68,0 -3.468,3.516 -3.468,6.156 0,0.552 0.12,2.412 1.38,2.412 1.632,0 3.456,-3.432 3.456,-6.156 z M 1.68,-4.344 c 0.18,-0.708 0.432,-1.716 0.912,-2.568 0.396,-0.72 0.816,-1.296 1.344,-1.296 0.396,0 0.66,0.336 0.66,1.488 0,0.432 -0.036,1.032 -0.384,2.376 z m 2.448,0.36 C 3.828,-2.808 3.576,-2.052 3.144,-1.296 2.796,-0.684 2.376,-0.12 1.872,-0.12 1.5,-0.12 1.2,-0.408 1.2,-1.596 c 0,-0.78 0.192,-1.596 0.384,-2.388 z"
       id="g218" />
    <path
       d="m 5.16,-8.22 c 0,-0.108 -0.084,-0.108 -0.12,-0.108 -0.108,0 -0.12,0.024 -0.168,0.228 l -0.648,2.58 c -0.036,0.156 -0.048,0.168 -0.06,0.18 -0.012,0.024 -0.096,0.036 -0.12,0.036 -1.968,0.168 -3.48,1.788 -3.48,3.288 0,1.296 0.996,2.088 2.244,2.16 C 2.712,0.516 2.628,0.9 2.532,1.272 2.364,1.908 2.268,2.304 2.268,2.352 c 0,0.024 0,0.096 0.12,0.096 0.036,0 0.084,0 0.108,-0.048 C 2.52,2.376 2.592,2.088 2.64,1.932 L 3.084,0.144 c 2.052,-0.108 3.612,-1.788 3.612,-3.3 0,-1.212 -0.912,-2.076 -2.244,-2.16 z m -0.78,3.144 c 0.792,0.048 1.584,0.492 1.584,1.668 0,1.356 -0.948,3.156 -2.82,3.3 z m -1.512,4.98 C 2.28,-0.132 1.296,-0.444 1.296,-1.764 c 0,-1.512 1.092,-3.192 2.82,-3.3 z"
       id="g230" />
    <path
       d="m 5.64,-8.04 c 0,-0.012 0.048,-0.168 0.048,-0.18 0,-0.108 -0.096,-0.108 -0.132,-0.108 -0.108,0 -0.12,0.06 -0.168,0.24 l -1.98,7.944 C 2.412,-0.264 2.04,-0.768 2.04,-1.488 c 0,-0.264 0,-0.54 0.564,-2.028 0.156,-0.432 0.216,-0.588 0.216,-0.804 0,-0.54 -0.384,-0.972 -0.948,-0.972 -1.104,0 -1.548,1.74 -1.548,1.836 0,0.048 0.048,0.108 0.132,0.108 0.108,0 0.12,-0.048 0.168,-0.216 0.288,-1.044 0.768,-1.488 1.212,-1.488 0.108,0 0.312,0.012 0.312,0.396 0,0.048 0,0.312 -0.204,0.84 -0.648,1.704 -0.648,1.968 -0.648,2.244 0,1.152 0.96,1.596 2.04,1.68 C 3.24,0.48 3.156,0.864 3.06,1.236 2.868,1.956 2.784,2.292 2.784,2.34 c 0,0.108 0.096,0.108 0.132,0.108 0.024,0 0.072,0 0.096,-0.048 C 3.06,2.352 3.552,0.336 3.6,0.12 c 0.444,0 1.392,0 2.472,-1.116 0.396,-0.432 0.756,-0.984 0.96,-1.5 0.12,-0.312 0.408,-1.38 0.408,-1.992 0,-0.72 -0.36,-0.804 -0.48,-0.804 -0.288,0 -0.552,0.288 -0.552,0.528 0,0.144 0.084,0.228 0.132,0.276 0.108,0.108 0.432,0.432 0.432,1.056 0,0.432 -0.24,1.32 -1.008,2.184 C 4.956,-0.12 4.032,-0.12 3.672,-0.12 Z"
       id="g232" />
    <path
       d="m 5.376,-3.84 c 0,-0.996 -0.06,-1.968 -0.492,-2.88 -0.492,-0.996 -1.356,-1.26 -1.944,-1.26 -0.696,0 -1.548,0.348 -1.992,1.344 -0.336,0.756 -0.456,1.5 -0.456,2.796 0,1.164 0.084,2.04 0.516,2.892 0.468,0.912 1.296,1.2 1.92,1.2 1.044,0 1.644,-0.624 1.992,-1.32 0.432,-0.9 0.456,-2.076 0.456,-2.772 z M 2.928,0.012 c -0.384,0 -1.164,-0.216 -1.392,-1.524 -0.132,-0.72 -0.132,-1.632 -0.132,-2.472 0,-0.984 0,-1.872 0.192,-2.58 0.204,-0.804 0.816,-1.176 1.332,-1.176 0.456,0 1.152,0.276 1.38,1.308 0.156,0.684 0.156,1.632 0.156,2.448 0,0.804 0,1.716 -0.132,2.448 -0.228,1.32 -0.984,1.548 -1.404,1.548 z"
       id="g348" />
    <path
       d="m 3.456,-7.692 c 0,-0.276 0,-0.288 -0.24,-0.288 -0.288,0.324 -0.888,0.768 -2.124,0.768 v 0.348 c 0.276,0 0.876,0 1.536,-0.312 v 6.252 c 0,0.432 -0.036,0.576 -1.092,0.576 H 1.164 V 0 c 0.324,-0.024 1.488,-0.024 1.884,-0.024 0.396,0 1.548,0 1.872,0.024 V -0.348 H 4.548 c -1.056,0 -1.092,-0.144 -1.092,-0.576 z"
       id="g349" />
    <path
       d="m 8.1,-3.888 c 0.168,0 0.384,0 0.384,-0.216 0,-0.228 -0.204,-0.228 -0.384,-0.228 H 1.032 c -0.168,0 -0.384,0 -0.384,0.216 0,0.228 0.204,0.228 0.384,0.228 z m 0,2.232 c 0.168,0 0.384,0 0.384,-0.216 C 8.484,-2.1 8.28,-2.1 8.1,-2.1 H 1.032 c -0.168,0 -0.384,0 -0.384,0.216 0,0.228 0.204,0.228 0.384,0.228 z"
       id="g361" />
    <path
       d="m 2.94,-8.328 -1.572,1.632 0.192,0.18 1.368,-1.236 1.38,1.236 0.192,-0.18 z"
       id="g394" />
    <path
       d="M 4.044,-2.964 5.436,-4.56 c 0.132,-0.156 0.24,-0.252 1.236,-0.252 V -5.328 C 6,-5.304 5.976,-5.304 5.568,-5.304 c -0.348,0 -0.864,0 -1.2,-0.024 v 0.516 c 0.228,0 0.48,0.06 0.48,0.144 0,0.024 -0.06,0.108 -0.084,0.132 L 3.72,-3.36 2.532,-4.812 h 0.504 v -0.516 c -0.276,0.024 -1.092,0.024 -1.416,0.024 -0.36,0 -1.008,0 -1.344,-0.024 v 0.516 H 1.128 L 3,-2.532 1.44,-0.768 C 1.296,-0.6 1.212,-0.516 0.216,-0.516 V 0 c 0.72,-0.024 0.744,-0.024 1.116,-0.024 0.348,0 0.852,0 1.188,0.024 v -0.516 c -0.228,0 -0.48,-0.06 -0.48,-0.144 0,-0.012 0,-0.024 0.084,-0.12 l 1.2,-1.356 1.332,1.62 H 4.152 V 0 c 0.288,-0.024 1.092,-0.024 1.428,-0.024 0.36,0 0.996,0 1.332,0.024 v -0.516 h -0.84 z"
       id="g0120" />
    <path
       d="m 5.94,-4.548 c 0.072,-0.168 0.12,-0.264 0.888,-0.264 v -0.516 c -0.408,0.024 -0.456,0.024 -0.948,0.024 -0.324,0 -0.348,0 -1.032,-0.024 v 0.516 c 0.012,0 0.576,0 0.576,0.156 0,0.036 -0.036,0.108 -0.048,0.144 L 3.972,-1.488 2.436,-4.812 h 0.66 v -0.516 c -0.288,0.024 -1.104,0.024 -1.44,0.024 -0.348,0 -1.056,0 -1.368,-0.024 v 0.516 H 1.056 L 3.276,0 C 3.216,0.144 3.048,0.492 2.988,0.636 2.736,1.176 2.352,2.004 1.512,2.004 1.464,2.004 1.32,2.004 1.188,1.932 1.212,1.92 1.572,1.776 1.572,1.32 1.572,0.924 1.284,0.672 0.924,0.672 c -0.372,0 -0.66,0.252 -0.66,0.66 0,0.564 0.528,1.068 1.248,1.068 0.984,0 1.632,-0.888 1.872,-1.416 z"
       id="g0121" />
    <path
       d="M 5.28,-4.872 C 5.388,-5.004 5.388,-5.028 5.388,-5.1 5.388,-5.328 5.268,-5.328 5.04,-5.328 H 0.696 l -0.132,2.064 h 0.504 c 0.072,-1.14 0.336,-1.668 1.668,-1.668 h 1.08 L 0.48,-0.48 C 0.372,-0.348 0.372,-0.324 0.372,-0.24 0.372,0 0.48,0 0.72,0 h 4.5 L 5.424,-2.376 H 4.92 C 4.824,-1.104 4.56,-0.432 3.048,-0.432 H 1.956 Z"
       id="g0122" />
    <path
       d="m 7.908,-2.76 c 0.204,0 0.42,0 0.42,-0.24 0,-0.24 -0.216,-0.24 -0.42,-0.24 H 1.416 c -0.204,0 -0.42,0 -0.42,0.24 0,0.24 0.216,0.24 0.42,0.24 z"
       id="g10" />
    <path
       d="m 3.276,-2.796 c 0.06,-0.144 0.06,-0.168 0.06,-0.204 0,-0.036 0,-0.06 -0.06,-0.204 l -2.1,-5.52 C 1.104,-8.928 1.032,-9 0.9,-9 c -0.132,0 -0.24,0.108 -0.24,0.24 0,0.036 0,0.06 0.06,0.192 L 2.844,-3 0.72,2.544 C 0.66,2.676 0.66,2.7 0.66,2.76 0.66,2.892 0.768,3 0.9,3 1.056,3 1.104,2.88 1.152,2.76 Z"
       id="g1105" />
    <path
       d="m 1.908,-8.568 c 0,-0.216 0,-0.432 -0.24,-0.432 -0.24,0 -0.24,0.216 -0.24,0.432 V 2.568 c 0,0.216 0,0.432 0.24,0.432 0.24,0 0.24,-0.216 0.24,-0.432 z"
       id="g1106" />
  </defs>
  <g
     id="page1">
    <rect
       style="fill:#625151;fill-opacity:1;stroke:#ffffff;stroke-width:5.66929;stroke-opacity:1"
       id="rect979"
       width="818.47107"
       height="744.61499"
       x="-0.74627441"
       y="15.777745" />
    <g
       id="g1019"
       transform="matrix(0.73509189,0,0,0.73509189,317.95191,287.81542)">
      <path
         d="m 346.6906,146.65205 c 0,-124.294267 -100.76026,-225.054505 -225.05452,-225.054505 -124.2942636,0 -225.0545,100.760238 -225.0545,225.054505 0,124.29426 100.7602364,225.05452 225.0545,225.05452 124.29426,0 225.05452,-100.76026 225.05452,-225.05452 z"
         fill="none"
         stroke="#000000"
         stroke-linecap="round"
         stroke-linejoin="round"
         stroke-miterlimit="10.0375"
         stroke-width="1.4986"
         id="path848"
         style="fill:none;fill-opacity:1;stroke:#ffffff;stroke-width:3;stroke-miterlimit:10.0375;stroke-dasharray:none;stroke-opacity:1" />
      <path
         d="m 346.6906,146.65205 c 0,-49.717843 -100.76026,-90.021747 -225.05452,-90.021747 -124.2942636,0 -225.0545,40.303904 -225.0545,90.021747 0,49.71782 100.7602364,90.02174 225.0545,90.02174 124.29426,0 225.05452,-40.30392 225.05452,-90.02174 z"
         fill="none"
         stroke="#000000"
         stroke-linecap="round"
         stroke-linejoin="round"
         stroke-miterlimit="10.0375"
         stroke-width="1.4986"
         stroke-dasharray="12.0463, 12.0463"
         id="path852"
         style="fill:none;fill-opacity:1;stroke:#ffffff;stroke-width:3;stroke-miterlimit:10.0375;stroke-dasharray:24.1151, 24.1151;stroke-dashoffset:0;stroke-opacity:1" />
      <path
         d="M 121.63608,-55.923669 V 146.65205"
         fill="none"
         stroke="#000000"
         stroke-linecap="round"
         stroke-linejoin="round"
         stroke-miterlimit="10.0375"
         stroke-width="1.4986"
         id="path856"
         style="fill:#000000;fill-opacity:1;stroke:#ffffff;stroke-width:2;stroke-miterlimit:10.0375;stroke-dasharray:none;stroke-opacity:1" />
      <path
         d="m 121.63608,-78.402455 -6.0232,22.478786 h 12.04644 z"
         fill="#000000"
         id="path860"
         style="fill:#000000;fill-opacity:1;stroke:#ffffff;stroke-width:2.98598;stroke-opacity:1" />
      <path
         d="m 121.63608,-78.402455 -6.0232,22.478786 h 12.04644 z"
         fill="none"
         stroke="#000000"
         stroke-linecap="round"
         stroke-linejoin="round"
         stroke-miterlimit="10.0375"
         stroke-width="1.4986"
         id="path864"
         style="fill:#000000;fill-opacity:1;stroke:#ffffff;stroke-opacity:1" />
      <use
         x="114.468"
         xlink:href="#g394"
         y="64.334503"
         id="use868"
         width="100%"
         height="100%"
         style="fill:#000000;fill-opacity:1;stroke:#ffffff;stroke-opacity:1"
         transform="matrix(2.985984,0,0,2.985984,-273.23642,-290.89016)" />
      <use
         x="114.406"
         xlink:href="#g0122"
         y="64.501099"
         id="use870"
         width="100%"
         height="100%"
         style="fill:#000000;fill-opacity:1;stroke:#ffffff;stroke-opacity:1"
         transform="matrix(2.985984,0,0,2.985984,-273.23642,-290.89016)" />
      <use
         x="123.739"
         xlink:href="#g361"
         y="64.501099"
         id="use872"
         width="100%"
         height="100%"
         style="fill:#000000;fill-opacity:1;stroke:#ffffff;stroke-opacity:1"
         transform="matrix(2.985984,0,0,2.985984,-273.23642,-290.89016)" />
      <use
         x="136.211"
         xlink:href="#g1106"
         y="64.501099"
         id="use874"
         width="100%"
         height="100%"
         style="fill:#000000;fill-opacity:1;stroke:#ffffff;stroke-opacity:1"
         transform="matrix(2.985984,0,0,2.985984,-273.23642,-290.89016)" />
      <use
         x="139.545"
         xlink:href="#g348"
         y="64.501099"
         id="use876"
         width="100%"
         height="100%"
         style="fill:#000000;fill-opacity:1;stroke:#ffffff;stroke-opacity:1"
         transform="matrix(2.985984,0,0,2.985984,-273.23642,-290.89016)" />
      <use
         x="145.42"
         xlink:href="#g1105"
         y="64.501099"
         id="use878"
         width="100%"
         height="100%"
         style="fill:#000000;fill-opacity:1;stroke:#ffffff;stroke-opacity:1"
         transform="matrix(2.985984,0,0,2.985984,-273.23642,-290.89016)" />
      <use
         x="109.739"
         xlink:href="#g10"
         y="234.442"
         id="use880"
         width="100%"
         height="100%"
         style="fill:#000000;fill-opacity:1;stroke:#ffffff;stroke-opacity:1"
         transform="matrix(2.985984,0,0,2.985984,-273.23642,-290.89016)" />
      <use
         x="119.135"
         xlink:href="#g394"
         y="234.27499"
         id="use882"
         width="100%"
         height="100%"
         style="fill:#000000;fill-opacity:1;stroke:#ffffff;stroke-opacity:1"
         transform="matrix(2.985984,0,0,2.985984,-273.23642,-290.89016)" />
      <use
         x="119.073"
         xlink:href="#g0122"
         y="234.442"
         id="use884"
         width="100%"
         height="100%"
         style="fill:#fdfdfd;fill-opacity:1;stroke:#ffffff;stroke-opacity:1"
         transform="matrix(2.985984,0,0,2.985984,-273.23642,-290.89016)" />
      <use
         x="128.40601"
         xlink:href="#g361"
         y="234.442"
         id="use886"
         width="100%"
         height="100%"
         style="fill:#000000;fill-opacity:1;stroke:#ffffff;stroke-opacity:1"
         transform="matrix(2.985984,0,0,2.985984,-273.23642,-290.89016)" />
      <use
         x="140.87801"
         xlink:href="#g1106"
         y="234.442"
         id="use888"
         width="100%"
         height="100%"
         style="fill:#000000;fill-opacity:1;stroke:#ffffff;stroke-opacity:1"
         transform="matrix(2.985984,0,0,2.985984,-273.23642,-290.89016)" />
      <use
         x="144.211"
         xlink:href="#g349"
         y="234.442"
         id="use890"
         width="100%"
         height="100%"
         style="fill:#000000;fill-opacity:1;stroke:#ffffff;stroke-opacity:1"
         transform="matrix(2.985984,0,0,2.985984,-273.23642,-290.89016)" />
      <use
         x="150.086"
         xlink:href="#g1105"
         y="234.442"
         id="use892"
         width="100%"
         height="100%"
         style="fill:#000000;fill-opacity:1;stroke:#ffffff;stroke-opacity:1"
         transform="matrix(2.985984,0,0,2.985984,-273.23642,-290.89016)" />
      <path
         d="M 324.2118,146.65205 H 121.63608"
         fill="none"
         stroke="#000000"
         stroke-linecap="round"
         stroke-linejoin="round"
         stroke-miterlimit="10.0375"
         stroke-width="1.4986"
         id="path894"
         style="fill:#000000;fill-opacity:1;stroke:#ffffff;stroke-width:2;stroke-miterlimit:10.0375;stroke-dasharray:none;stroke-opacity:1" />
      <path
         d="m 346.6906,146.65205 -22.4788,-6.0232 v 12.04641 z"
         fill="#000000"
         id="path898"
         style="fill:#000000;fill-opacity:1;stroke:#ffffff;stroke-width:2.98598;stroke-opacity:1" />
      <path
         d="m 346.6906,146.65205 -22.4788,-6.0232 v 12.04641 z"
         fill="none"
         stroke="#000000"
         stroke-linecap="round"
         stroke-linejoin="round"
         stroke-miterlimit="10.0375"
         stroke-width="1.4986"
         id="path902"
         style="fill:#000000;fill-opacity:1;stroke:#ffffff;stroke-opacity:1" />
      <use
         x="211.935"
         xlink:href="#g394"
         y="149.388"
         id="use906"
         width="100%"
         height="100%"
         style="fill:#000000;fill-opacity:1;stroke:#ffffff;stroke-opacity:1"
         transform="matrix(2.985984,0,0,2.985984,-273.23642,-290.89016)" />
      <use
         x="211.216"
         xlink:href="#g0121"
         y="149.55499"
         id="use908"
         width="100%"
         height="100%"
         style="fill:#ffffff;fill-opacity:1;stroke:#ffffff;stroke-opacity:1"
         transform="matrix(2.985984,0,0,2.985984,-273.23642,-290.89016)"
         inkscape:transform-center-x="7.2645368"
         inkscape:transform-center-y="-5.3928485" />
      <path
         d="m 53.947706,214.34045 67.688374,-67.6884"
         fill="none"
         stroke="#000000"
         stroke-linecap="round"
         stroke-linejoin="round"
         stroke-miterlimit="10.0375"
         stroke-width="1.4986"
         id="path910"
         style="fill:#000000;fill-opacity:1;stroke:#ffffff;stroke-width:2;stroke-miterlimit:10.0375;stroke-dasharray:none;stroke-opacity:1" />
      <path
         d="m 38.05302,230.23513 20.153894,-11.63579 -8.518117,-8.51812 z"
         fill="#000000"
         id="path914"
         style="fill:#000000;fill-opacity:1;stroke:#ffffff;stroke-width:2.98598;stroke-opacity:1" />
      <path
         d="m 38.05302,230.23513 20.153894,-11.63579 -8.518117,-8.51812 z"
         fill="none"
         stroke="#000000"
         stroke-linecap="round"
         stroke-linejoin="round"
         stroke-miterlimit="10.0375"
         stroke-width="1.4986"
         id="path918"
         style="fill:#000000;fill-opacity:1;stroke:#ffffff;stroke-opacity:1" />
      <use
         x="95.208702"
         xlink:href="#g394"
         y="185.342"
         id="use922"
         width="100%"
         height="100%"
         style="fill:#000000;fill-opacity:1;stroke:#ffffff;stroke-opacity:1"
         transform="matrix(2.985984,0,0,2.985984,-273.23642,-290.89016)" />
      <path
         d="M 121.63608,146.65205 198.34332,35.52239"
         fill="none"
         stroke="#000000"
         stroke-linecap="round"
         stroke-linejoin="round"
         stroke-miterlimit="10.0375"
         stroke-width="1.4986"
         id="path926"
         style="fill:#000000;fill-opacity:1;stroke:#ffffff;stroke-opacity:1" />
      <circle
         cx="198.34335"
         cy="35.522427"
         r="4.4957571"
         fill="#000000"
         id="circle930"
         style="fill:#000000;fill-opacity:1;stroke:#ffffff;stroke-width:2.98598;stroke-opacity:1" />
      <use
         x="160.481"
         xlink:href="#g1106"
         y="103.709"
         id="use934"
         width="100%"
         height="100%"
         style="fill:#000000;fill-opacity:1;stroke:#ffffff;stroke-opacity:1"
         transform="matrix(2.985984,0,0,2.985984,-273.23642,-290.89016)" />
      <use
         x="163.814"
         xlink:href="#g232"
         y="103.709"
         id="use936"
         width="100%"
         height="100%"
         style="fill:#000000;fill-opacity:1;stroke:#ffffff;stroke-opacity:1"
         transform="matrix(2.985984,0,0,2.985984,-273.23642,-290.89016)" />
      <use
         x="171.884"
         xlink:href="#g1105"
         y="103.709"
         id="use938"
         width="100%"
         height="100%"
         style="fill:#000000;fill-opacity:1;stroke:#ffffff;stroke-opacity:1"
         transform="matrix(2.985984,0,0,2.985984,-273.23642,-290.89016)" />
      <path
         d="M 198.34332,35.52239 V 193.06051 L 121.63608,146.65205"
         fill="none"
         stroke="#000000"
         stroke-linecap="round"
         stroke-linejoin="round"
         stroke-miterlimit="10.0375"
         stroke-width="1.4986"
         stroke-dasharray="0, 6.02755"
         id="path940"
         style="fill:none;fill-opacity:1;stroke:#ffffff;stroke-opacity:1" />
      <path
         d="m 140.81294,118.86958 c -0.0144,-0.01 -0.0269,-0.0173 -0.0422,-0.03 -0.0144,-0.01 -0.0269,-0.0173 -0.0422,-0.03 -0.0144,-0.01 -0.0269,-0.0173 -0.0422,-0.03 -0.0144,-0.01 -0.0269,-0.0173 -0.0422,-0.03 -0.0144,-0.01 -0.0269,-0.0173 -0.0422,-0.03 -0.0144,-0.01 -0.0269,-0.0173 -0.0422,-0.03 -0.0144,-0.01 -0.0269,-0.0173 -0.0422,-0.03 -0.0144,-0.01 -0.0269,-0.0173 -0.0424,-0.03 -0.0144,-0.01 -0.0269,-0.0173 -0.0424,-0.03 -0.0144,-0.01 -0.0269,-0.0173 -0.0424,-0.03 -0.0144,-0.01 -0.0269,-0.0173 -0.0424,-0.0269 -0.0144,-0.01 -0.0269,-0.0173 -0.0424,-0.0269 -0.0144,-0.01 -0.0269,-0.0173 -0.0424,-0.0269 -0.0144,-0.01 -0.03,-0.0173 -0.0426,-0.0269 -0.0144,-0.01 -0.03,-0.0173 -0.0426,-0.0269 -0.0144,-0.01 -0.03,-0.0173 -0.0426,-0.0269 -0.0144,-0.01 -0.03,-0.0173 -0.0426,-0.0269 -0.0144,-0.01 -0.03,-0.0173 -0.0426,-0.0269 -0.0144,-0.01 -0.03,-0.0173 -0.0426,-0.0269 -0.0144,-0.01 -0.03,-0.0173 -0.0426,-0.0269 -0.0144,-0.01 -0.03,-0.0173 -0.0426,-0.0269 -0.0144,-0.01 -0.03,-0.0173 -0.0432,-0.0269 -0.0144,-0.01 -0.03,-0.0173 -0.0432,-0.0269 -0.0144,-0.01 -0.03,-0.0173 -0.0432,-0.0269 -0.0144,-0.01 -0.03,-0.0173 -0.0432,-0.0269 -0.0144,-0.01 -0.03,-0.0173 -0.0432,-0.0269 -0.0144,-0.01 -0.03,-0.0173 -0.0432,-0.0269 -0.0144,-0.01 -0.03,-0.0173 -0.0432,-0.0269 -0.0144,-0.01 -0.03,-0.0173 -0.0433,-0.0269 -0.0144,-0.01 -0.03,-0.0173 -0.0433,-0.0269 -0.0144,-0.01 -0.03,-0.0173 -0.0433,-0.0269 -0.0144,-0.01 -0.03,-0.0173 -0.0433,-0.0269 -0.0144,-0.01 -0.03,-0.0173 -0.0433,-0.0269 -0.0144,-0.01 -0.03,-0.0173 -0.0433,-0.0269 -0.0144,-0.01 -0.03,-0.0173 -0.0433,-0.0269 -0.0144,-0.01 -0.03,-0.0173 -0.0434,-0.0269 -0.0144,-0.01 -0.03,-0.0173 -0.0434,-0.0269 -0.0144,-0.01 -0.03,-0.0173 -0.0434,-0.0269 -0.0144,-0.01 -0.03,-0.0173 -0.0434,-0.0269 -0.0144,-0.01 -0.03,-0.0173 -0.0434,-0.0269 -0.0144,-0.01 -0.03,-0.0173 -0.0434,-0.0269 -0.0144,-0.01 -0.03,-0.0173 -0.0434,-0.0269 -0.0144,-0.01 -0.03,-0.0173 -0.0438,-0.0269 -0.0144,-0.01 -0.03,-0.0173 -0.0438,-0.0269 -0.0144,-0.01 -0.03,-0.0173 -0.0438,-0.0269 -0.0144,-0.01 -0.03,-0.0173 -0.0438,-0.0269 -0.0144,-0.01 -0.03,-0.0173 -0.0438,-0.0269 -0.0144,-0.01 -0.03,-0.0173 -0.0438,-0.0269 -0.0144,-0.01 -0.03,-0.0173 -0.0438,-0.0269 -0.0144,-0.01 -0.03,-0.0173 -0.0438,-0.0269 -0.0144,-0.01 -0.03,-0.0173 -0.0444,-0.0269 -0.0144,-0.01 -0.03,-0.0173 -0.0444,-0.0269 -0.0144,-0.01 -0.03,-0.0173 -0.0444,-0.0269 -0.0144,-0.01 -0.03,-0.0173 -0.0444,-0.0269 -0.0144,-0.01 -0.03,-0.0173 -0.0444,-0.0269 -0.0144,-0.01 -0.03,-0.0173 -0.0444,-0.025 -0.0144,-0.01 -0.03,-0.0173 -0.0444,-0.025 -0.0144,-0.01 -0.03,-0.0173 -0.0446,-0.025 -0.0144,-0.01 -0.03,-0.0173 -0.0444,-0.025 -0.0144,-0.01 -0.03,-0.0173 -0.0446,-0.025 -0.0144,-0.01 -0.03,-0.0173 -0.0446,-0.025 -0.0144,-0.01 -0.03,-0.0173 -0.0446,-0.025 -0.0144,-0.01 -0.03,-0.0173 -0.0446,-0.025 -0.0144,-0.01 -0.03,-0.0173 -0.0446,-0.025 -0.0144,-0.01 -0.03,-0.0173 -0.0446,-0.025 -0.0144,-0.01 -0.03,-0.0173 -0.0446,-0.025 -0.0144,-0.01 -0.03,-0.0173 -0.0448,-0.025 -0.0144,-0.01 -0.03,-0.0144 -0.0448,-0.025 -0.0144,-0.01 -0.03,-0.0144 -0.0448,-0.025 -0.0144,-0.01 -0.03,-0.0144 -0.0448,-0.025 -0.0144,-0.01 -0.03,-0.0144 -0.0448,-0.025 -0.0144,-0.01 -0.03,-0.0144 -0.0448,-0.025 -0.0144,-0.01 -0.03,-0.0144 -0.0448,-0.025 -0.0144,-0.01 -0.03,-0.0144 -0.0448,-0.025 -0.0144,-0.01 -0.03,-0.0144 -0.0449,-0.025 -0.0144,-0.01 -0.03,-0.0144 -0.0449,-0.025 -0.0144,-0.01 -0.0301,-0.0144 -0.0449,-0.025 -0.0144,-0.01 -0.0301,-0.0144 -0.0449,-0.025 -0.0144,-0.01 -0.0301,-0.0144 -0.0449,-0.025 -0.0144,-0.01 -0.0301,-0.0144 -0.0449,-0.025 -0.0144,-0.01 -0.0301,-0.0144 -0.0449,-0.025 -0.0144,-0.01 -0.0301,-0.0144 -0.0449,-0.025 -0.0144,-0.01 -0.0301,-0.0144 -0.0452,-0.025 -0.0144,-0.01 -0.0301,-0.0144 -0.0452,-0.025 -0.0144,-0.01 -0.0301,-0.0144 -0.0452,-0.025 -0.0144,-0.01 -0.0301,-0.0144 -0.0452,-0.025 -0.0144,-0.01 -0.0301,-0.0144 -0.0452,-0.025 -0.0144,-0.002 -0.0301,-0.0144 -0.0452,-0.025 -0.0144,-0.01 -0.0301,-0.0144 -0.0452,-0.025 -0.0144,-0.002 -0.0301,-0.0144 -0.0452,-0.025 -0.0144,-0.002 -0.0302,-0.0144 -0.0452,-0.025 -0.0144,-0.002 -0.0302,-0.0144 -0.0458,-0.025 -0.0144,-0.01 -0.0302,-0.0144 -0.0458,-0.025 -0.0144,-0.002 -0.0302,-0.0144 -0.0458,-0.025 -0.0144,-0.01 -0.0302,-0.0144 -0.0458,-0.025 -0.0144,-0.01 -0.0302,-0.0144 -0.0458,-0.025 -0.0144,-0.002 -0.0302,-0.0144 -0.0458,-0.025 -0.0144,-0.002 -0.0302,-0.0144 -0.0458,-0.025 -0.0144,-0.002 -0.0302,-0.0144 -0.0458,-0.0208 -0.0144,-0.002 -0.0302,-0.0144 -0.0458,-0.0208 -0.0144,-0.002 -0.0302,-0.0144 -0.046,-0.0208 -0.0144,-0.002 -0.0302,-0.0144 -0.046,-0.025 -0.0144,-0.002 -0.031,-0.0144 -0.046,-0.0208 -0.0144,-0.002 -0.031,-0.0144 -0.046,-0.0208 -0.0144,-0.002 -0.031,-0.0144 -0.046,-0.0208 -0.0144,-0.002 -0.031,-0.0144 -0.046,-0.0208 -0.0144,-0.002 -0.031,-0.0144 -0.046,-0.0208 -0.0144,-0.002 -0.031,-0.0144 -0.046,-0.0208 -0.0144,-0.002 -0.031,-0.0144 -0.046,-0.0208 -0.0144,-0.002 -0.031,-0.0144 -0.0463,-0.0208 -0.0144,-0.002 -0.031,-0.0144 -0.0463,-0.0208 -0.0144,-0.002 -0.031,-0.0144 -0.0463,-0.0208 -0.0144,-0.002 -0.031,-0.0144 -0.0463,-0.0208 -0.0144,-0.002 -0.031,-0.0144 -0.0463,-0.0208 -0.0144,-0.002 -0.031,-0.0144 -0.0463,-0.0208 -0.0144,-0.002 -0.031,-0.0144 -0.0463,-0.0208 -0.0144,-0.002 -0.0311,-0.0144 -0.0463,-0.0208 -0.0144,-0.002 -0.0311,-0.0144 -0.0463,-0.0208 -0.0144,-0.002 -0.0311,-0.0144 -0.0463,-0.0208 -0.0144,-0.002 -0.0311,-0.0144 -0.0466,-0.0208 -0.0144,-0.002 -0.0311,-0.0144 -0.0466,-0.0208 -0.0144,-0.002 -0.0311,-0.0144 -0.0466,-0.0208 -0.0144,-0.002 -0.0311,-0.0144 -0.0466,-0.0208 -0.0144,-0.002 -0.0311,-0.0144 -0.0466,-0.0208 -0.0144,-0.002 -0.0311,-0.0144 -0.0466,-0.0208 -0.0144,-0.002 -0.0311,-0.0144 -0.0466,-0.0208 -0.0144,-0.002 -0.0311,-0.0144 -0.0466,-0.0208 -0.0144,-0.002 -0.0311,-0.0144 -0.0468,-0.0208 -0.0144,-0.002 -0.0311,-0.0144 -0.0468,-0.0208 -0.0144,-0.002 -0.0311,-0.0144 -0.0468,-0.0208 -0.0144,-0.002 -0.0312,-0.0144 -0.0468,-0.0208 -0.0144,-0.002 -0.0312,-0.0144 -0.0468,-0.0208 -0.0144,-0.002 -0.0312,-0.012 -0.0468,-0.0208 -0.0144,-0.002 -0.0312,-0.0144 -0.0468,-0.0208 -0.0144,-0.002 -0.0312,-0.0144 -0.0468,-0.0208 -0.0144,-0.002 -0.0312,-0.012 -0.0468,-0.0208 -0.0144,-0.002 -0.0312,-0.0144 -0.0468,-0.0208 -0.0144,-0.002 -0.0312,-0.012 -0.0474,-0.0173 -0.0144,-0.002 -0.0312,-0.012 -0.0474,-0.0208 -0.0144,-0.002 -0.0312,-0.012 -0.0474,-0.0208 -0.0144,-0.002 -0.0312,-0.012 -0.0474,-0.0173 -0.0144,-0.002 -0.0312,-0.012 -0.0474,-0.0173 -0.0144,-0.002 -0.0312,-0.012 -0.0474,-0.0208 -0.0144,-0.002 -0.0312,-0.012 -0.0474,-0.0173 -0.0144,-0.002 -0.0312,-0.012 -0.0474,-0.0173 -0.0144,-0.002 -0.0312,-0.012 -0.0474,-0.0173 -0.0144,-0.002 -0.0312,-0.012 -0.0474,-0.0173 -0.0144,-0.002 -0.0314,-0.012 -0.0475,-0.0173 -0.0144,-0.002 -0.0314,-0.012 -0.0475,-0.0173 -0.0144,-0.002 -0.0314,-0.012 -0.0475,-0.0173 -0.0144,-0.002 -0.0314,-0.012 -0.0475,-0.0173 -0.0144,-0.002 -0.0314,-0.012 -0.0475,-0.0173 -0.0144,-0.002 -0.0314,-0.012 -0.0475,-0.0173 -0.0144,-0.002 -0.0314,-0.012 -0.0475,-0.0173 -0.0144,-0.002 -0.0314,-0.012 -0.0475,-0.0173 -0.0144,-0.002 -0.0314,-0.012 -0.0475,-0.0173 -0.0144,-0.002 -0.0314,-0.012 -0.0475,-0.0173 -0.0144,-0.002 -0.0314,-0.012 -0.0475,-0.0173 -0.0144,-0.002 -0.0314,-0.012 -0.0476,-0.0173 -0.0144,-0.002 -0.0314,-0.012 -0.0476,-0.0173 -0.0144,-0.002 -0.0314,-0.012 -0.0476,-0.0173 -0.0144,-0.002 -0.0314,-0.012 -0.0476,-0.0173 -0.0144,-0.002 -0.0314,-0.012 -0.0476,-0.0173 -0.0144,-0.002 -0.0319,-0.012 -0.0476,-0.0173 -0.0144,-0.002 -0.0319,-0.012 -0.0476,-0.0173 -0.0144,-0.002 -0.0319,-0.012 -0.0476,-0.0173 -0.0144,-0.002 -0.0319,-0.012 -0.0476,-0.0173 -0.0144,-0.002 -0.0319,-0.012 -0.0476,-0.0173 -0.0144,-0.002 -0.0319,-0.012 -0.0476,-0.0173 -0.0144,-0.002 -0.0319,-0.012 -0.0481,-0.0173 -0.0144,-0.002 -0.0319,-0.012 -0.0481,-0.0173 -0.0144,-0.002 -0.0319,-0.012 -0.0481,-0.0173 -0.0144,-0.002 -0.0319,-0.012 -0.0481,-0.0173 -0.0144,-0.002 -0.0319,-0.012 -0.0481,-0.0173 -0.0144,-0.002 -0.0319,-0.012 -0.0481,-0.0173 -0.0144,-0.002 -0.0319,-0.012 -0.0481,-0.0173 -0.0144,-0.002 -0.0319,-0.012 -0.0481,-0.0173 -0.0144,-0.002 -0.0319,-0.012 -0.0481,-0.0173 -0.0144,-0.002 -0.0319,-0.012 -0.0481,-0.0173 -0.0144,-0.002 -0.0323,-0.012 -0.0481,-0.0173 -0.0144,-0.002 -0.0323,-0.012 -0.0481,-0.0173 -0.0144,-0.002 -0.0323,-0.012 -0.0484,-0.0173 -0.0144,-0.002 -0.0323,-0.012 -0.0484,-0.0144 -0.0144,-0.002 -0.0323,-0.012 -0.0484,-0.0173 -0.0144,-0.002 -0.0323,-0.012 -0.0484,-0.0173 -0.0144,-0.002 -0.0323,-0.012 -0.0484,-0.0144 -0.0144,-0.002 -0.0323,-0.012 -0.0484,-0.0144 -0.0144,-0.002 -0.0323,-0.012 -0.0484,-0.0144 -0.0144,-0.002 -0.0323,-0.012 -0.0484,-0.0144 -0.0144,-0.002 -0.0323,-0.012 -0.0484,-0.0144 -0.0144,-0.002 -0.0323,-0.012 -0.0484,-0.0144 -0.0144,-0.002 -0.0323,-0.012 -0.0484,-0.0144 -0.0144,-0.002 -0.0323,-0.012 -0.0487,-0.0144 -0.0144,-0.002 -0.0323,-0.012 -0.0484,-0.0144 -0.0144,-0.002 -0.0323,-0.01 -0.0487,-0.0144 -0.0144,-0.002 -0.0323,-0.012 -0.0487,-0.0144 -0.0144,-0.002 -0.0325,-0.012 -0.0487,-0.0144 -0.0144,-0.002 -0.0325,-0.01 -0.0487,-0.0144 -0.0144,-0.002 -0.0325,-0.012 -0.0487,-0.0144 -0.0144,-0.002 -0.0325,-0.01 -0.0487,-0.0144 -0.0144,-0.002 -0.0325,-0.01 -0.0487,-0.0144 -0.0144,-0.002 -0.0325,-0.01 -0.0487,-0.0144 -0.0144,-0.002 -0.0325,-0.01 -0.0487,-0.0144 -0.0144,-0.002 -0.0325,-0.01 -0.0487,-0.0144 -0.0144,-0.002 -0.0325,-0.01 -0.0487,-0.0144 -0.0144,-0.002 -0.0325,-0.01 -0.049,-0.0144 -0.0144,-0.002 -0.0325,-0.01 -0.0487,-0.0144 -0.0144,-0.002 -0.0325,-0.01 -0.049,-0.0144 -0.0144,-0.002 -0.0325,-0.01 -0.049,-0.0144 -0.0144,-0.002 -0.0325,-0.01 -0.049,-0.0144 -0.0144,-0.002 -0.0325,-0.01 -0.049,-0.0144 -0.0144,-0.002 -0.0325,-0.01 -0.049,-0.0144 -0.0144,-0.002 -0.0325,-0.01 -0.049,-0.0144 -0.0144,-0.002 -0.0325,-0.01 -0.049,-0.0144 -0.0144,-0.002 -0.0325,-0.01 -0.049,-0.0144 -0.0144,-10e-4 -0.0329,-0.01 -0.049,-0.0144 -0.0144,-0.001 -0.0325,-0.01 -0.049,-0.0144 -0.0144,-0.002 -0.0329,-0.01 -0.049,-0.0144 -0.0144,-10e-4 -0.0329,-0.01 -0.049,-0.0144 -0.0144,-0.001 -0.0329,-0.01 -0.0494,-0.0144 -0.0144,-10e-4 -0.0329,-0.01 -0.049,-0.0144 -0.0144,-0.001 -0.0329,-0.01 -0.0494,-0.0144 -0.0144,-0.001 -0.0329,-0.01 -0.0494,-0.0144 -0.0144,-10e-4 -0.0329,-0.01 -0.0494,-0.012 -0.0144,-0.002 -0.0329,-0.01 -0.0494,-0.0144 -0.0144,-0.001 -0.0329,-0.01 -0.0494,-0.0144 -0.0173,-0.001 -0.0329,-0.01 -0.0494,-0.012 -0.0144,-0.001 -0.0329,-0.01 -0.0494,-0.012 -0.0144,-0.001 -0.0329,-0.01 -0.0494,-0.012 -0.0173,-0.001 -0.0329,-0.01 -0.0494,-0.012 -0.0173,-0.002 -0.0329,-0.01 -0.0494,-0.012 -0.0173,-0.002 -0.0329,-0.01 -0.0494,-0.012 -0.0173,-0.002 -0.0329,-0.01 -0.0494,-0.012 -0.0173,-0.001 -0.0329,-0.01 -0.0494,-0.012 -0.0173,-0.001 -0.0329,-0.01 -0.0496,-0.012 -0.0173,-0.001 -0.0329,-0.01 -0.0494,-0.012 -0.0173,-0.001 -0.0329,-0.01 -0.0494,-0.012 -0.0173,-0.001 -0.0331,-0.01 -0.0496,-0.012 -0.0173,-0.001 -0.0329,-0.01 -0.0496,-0.012 -0.0173,-0.001 -0.0329,-0.01 -0.0496,-0.012 -0.0173,-0.001 -0.0331,-0.01 -0.0496,-0.012 -0.0173,-10e-4 -0.0331,-0.01 -0.0496,-0.012 -0.0173,-10e-4 -0.0331,-0.01 -0.0496,-0.012 -0.0173,-10e-4 -0.0331,-0.01 -0.0496,-0.012 -0.0173,-10e-4 -0.0331,-0.01 -0.0496,-0.012 -0.0173,-10e-4 -0.0331,-0.01 -0.0496,-0.012 -0.0173,-10e-4 -0.0331,-0.01 -0.0496,-0.012 -0.0173,-10e-4 -0.0331,-0.01 -0.0496,-0.012 -0.0173,-10e-4 -0.0331,-0.01 -0.0496,-0.012 -0.0173,-10e-4 -0.0331,-0.01 -0.0496,-0.012 -0.0173,-10e-4 -0.0331,-0.01 -0.0496,-0.012 -0.0173,-10e-4 -0.0331,-0.01 -0.0496,-0.012 -0.0173,-0.001 -0.0331,-0.002 -0.0498,-0.012 -0.0173,-0.001 -0.0331,-0.002 -0.0498,-0.012 -0.0173,-0.001 -0.0331,-0.002 -0.0498,-0.012 -0.0173,-0.001 -0.0331,-0.002 -0.0498,-0.012 -0.0173,-0.001 -0.0331,-0.002 -0.0498,-0.012 -0.0173,-0.001 -0.0331,-0.002 -0.0498,-0.012 -0.0173,-0.001 -0.0331,-0.002 -0.0498,-0.012 -0.0173,-0.001 -0.0331,-0.002 -0.0498,-0.012 -0.0173,-0.001 -0.0331,-0.002 -0.0498,-0.012 -0.0173,-0.001 -0.0331,-0.002 -0.0498,-0.012 -0.0173,-0.001 -0.0331,-0.002 -0.0498,-0.012 -0.0173,-0.001 -0.0331,-0.002 -0.0498,-0.012 -0.0173,-0.001 -0.0334,-0.002 -0.0498,-0.01 -0.0173,-10e-4 -0.0334,-0.002 -0.0498,-0.012 -0.0173,-10e-4 -0.0334,-0.002 -0.0498,-0.01 -0.0173,-0.001 -0.0331,-0.002 -0.0498,-0.01 -0.0173,-0.001 -0.0334,-0.002 -0.0498,-0.01 -0.0173,-10e-4 -0.0334,-0.002 -0.0502,-0.01 -0.0173,-0.001 -0.0334,-0.002 -0.0502,-0.01 -0.0173,-0.001 -0.0334,-0.002 -0.0502,-0.01 -0.0173,-10e-4 -0.0334,-0.002 -0.0502,-0.01 -0.0173,-0.001 -0.0334,-0.002 -0.0502,-0.01 -0.0173,-10e-4 -0.0334,-0.002 -0.0502,-0.01 -0.0173,-0.001 -0.0334,-0.002 -0.0502,-0.01 -0.0173,-0.001 -0.0334,-0.002 -0.0502,-0.01 -0.0173,-10e-4 -0.0334,-0.002 -0.0502,-0.01 -0.0173,-0.001 -0.0334,-0.002 -0.0502,-0.01 -0.0173,-0.001 -0.0334,-0.002 -0.0502,-0.01 -0.0173,-10e-4 -0.0334,-0.002 -0.0502,-0.01 -0.0173,-0.001 -0.0334,-0.002 -0.0502,-0.01 -0.0173,-0.001 -0.0334,-0.002 -0.0502,-0.01 -0.0173,-10e-4 -0.0334,-0.002 -0.0502,-0.01 -0.0173,-0.001 -0.0334,-0.002 -0.0502,-0.01 -0.0173,-0.001 -0.0334,-0.002 -0.0502,-0.01 -0.0173,-0.001 -0.0334,-0.002 -0.0502,-0.01 -0.0173,-0.001 -0.0334,-0.002 -0.0502,-0.01 -0.0173,-10e-4 -0.0334,-0.002 -0.0502,-0.01 -0.0173,-0.001 -0.0334,-0.002 -0.0502,-0.01 -0.0173,-0.001 -0.0334,-0.002 -0.0506,-0.01 -0.0173,-10e-4 -0.0334,-0.002 -0.0502,-0.01 -0.0173,-0.001 -0.0334,-0.002 -0.0506,-0.01 -0.0173,-0.001 -0.0334,-0.002 -0.0506,-0.01 -0.0173,-10e-4 -0.0334,-0.002 -0.0506,-0.01 -0.0173,-0.001 -0.0334,-0.002 -0.0506,-0.01 -0.0173,-0.001 -0.0338,-0.002 -0.0506,-0.01 -0.0173,-10e-4 -0.0334,-0.002 -0.0506,-0.01 -0.0173,-0.001 -0.0338,-0.002 -0.0506,-0.01 -0.0173,-10e-4 -0.0334,-0.002 -0.0506,-0.002 -0.0173,-0.001 -0.0338,-0.002 -0.0506,-0.01 -0.0173,-10e-4 -0.0338,-0.002 -0.0506,-0.002 -0.0173,-0.001 -0.0338,-0.002 -0.0506,-0.002 -0.0173,-0.001 -0.0338,-0.002 -0.0506,-0.002 -0.0173,-10e-4 -0.0338,-0.002 -0.0506,-0.002 -0.0173,-0.001 -0.0338,-0.002 -0.0506,-0.002 -0.0173,-0.001 -0.0338,-0.002 -0.0506,-0.002 -0.0173,-10e-4 -0.0338,-0.002 -0.0506,-0.002 -0.0173,-0.001 -0.0338,-0.002 -0.0506,-0.002 -0.0173,-0.001 -0.0338,-0.002 -0.0506,-0.002 -0.0173,-10e-4 -0.0338,-0.002 -0.0506,-0.002 -0.0173,-0.001 -0.0338,-0.001 -0.0506,-0.002 -0.0173,-0.001 -0.0338,-0.001 -0.0506,-0.002 -0.0173,-10e-4 -0.0338,-0.002 -0.0506,-0.002 -0.0173,-0.001 -0.0338,-0.001 -0.0506,-0.002 -0.0173,-0.001 -0.0338,-0.001 -0.0506,-0.002 -0.0173,-10e-4 -0.0338,-10e-4 -0.0506,-0.002 -0.0173,-0.001 -0.0338,-0.001 -0.0506,-0.002 -0.0173,-0.001 -0.0338,-0.001 -0.0509,-0.002 -0.0173,-10e-4 -0.0338,-10e-4 -0.0509,-0.002 -0.0173,-0.001 -0.0338,-0.001 -0.0506,-0.002 -0.0173,-0.001 -0.0338,-0.001 -0.0509,-0.002 -0.0173,-10e-4 -0.0338,-10e-4 -0.0509,-0.002 -0.0173,-0.001 -0.0338,-0.001 -0.0509,-0.002 -0.0173,-0.001 -0.0338,-0.001 -0.0509,-0.002 -0.0173,-10e-4 -0.0338,-10e-4 -0.0509,-0.002 -0.0173,-0.001 -0.0338,-0.001 -0.0509,-0.002 -0.0173,-0.001 -0.0338,-0.001 -0.0509,-0.002 -0.0173,-10e-4 -0.0338,-10e-4 -0.0509,-0.002 -0.0173,-0.001 -0.0338,-0.001 -0.0509,-0.002 -0.0173,-0.001 -0.0338,-0.001 -0.0509,-0.002 -0.0173,-10e-4 -0.0338,-10e-4 -0.0509,-0.002 -0.0173,-0.001 -0.0338,-0.001 -0.0509,-0.002 -0.0173,-0.001 -0.0338,-0.001 -0.0509,-0.002 -0.0173,-10e-4 -0.0338,-10e-4 -0.0509,-0.002 -0.0173,-0.001 -0.0338,-0.001 -0.0509,-0.002 -0.0173,-0.001 -0.0338,-0.001 -0.0509,-0.002 -0.0173,-10e-4 -0.0338,-10e-4 -0.0509,-0.002 -0.0173,-0.001 -0.0338,-0.001 -0.0509,-0.002 -0.0173,-0.001 -0.0338,-0.001 -0.0509,-0.002 -0.0173,-10e-4 -0.0338,-10e-4 -0.0509,-10e-4 -0.0173,-0.001 -0.0338,-0.001 -0.0509,-0.001 -0.0173,-0.001 -0.0338,-0.001 -0.0509,-0.001 -0.0173,-10e-4 -0.0338,-10e-4 -0.0509,-10e-4 -0.0173,-0.001 -0.0338,-0.001 -0.0509,-0.001 -0.0173,-0.001 -0.0338,-0.001 -0.0509,-0.001 -0.0173,-10e-4 -0.0338,-10e-4 -0.0509,-10e-4 -0.0173,-0.001 -0.0338,-0.001 -0.0509,-0.001 -0.0173,-0.001 -0.0338,-0.001 -0.0509,-0.001 -0.0173,-10e-4 -0.0338,-10e-4 -0.0509,-10e-4 -0.0173,-0.001 -0.0338,-0.001 -0.0509,-0.001 -0.0173,-0.001 -0.034,-0.001 -0.0509,-0.001 -0.0173,-10e-4 -0.0338,-10e-4 -0.0509,-10e-4 -0.0173,-0.001 -0.0338,-0.001 -0.0509,-0.001 -0.0173,-0.001 -0.034,-0.001 -0.0509,-0.001 -0.0173,-10e-4 -0.0338,-10e-4 -0.0509,-10e-4 -0.0173,-0.001 -0.034,-0.001 -0.0509,-0.001 -0.0173,-0.001 -0.034,-0.001 -0.0509,-0.001 -0.0173,-10e-4 -0.034,-10e-4 -0.0509,-10e-4 -0.0173,-8.7e-4 -0.034,-0.001 -0.051,-0.001 -0.0173,-0.001 -0.034,-0.001 -0.0509,-0.001 -0.0173,-10e-4 -0.034,-10e-4 -0.0509,-10e-4 -0.0173,-0.001 -0.034,-0.001 -0.051,-0.001 -0.0173,-8.7e-4 -0.034,-0.001 -0.0509,-0.001 -0.0173,-10e-4 -0.034,-10e-4 -0.051,-10e-4 -0.0173,-8.7e-4 -0.034,-0.001 -0.051,-0.001 -0.0173,-9e-4 -0.034,-0.001 -0.051,-0.001 -0.0173,-9e-4 -0.034,-10e-4 -0.051,-10e-4 -0.0173,-8.7e-4 -0.034,-0.001 -0.051,-0.001 -0.0173,-5.7e-4 -0.034,-10e-4 -0.051,-10e-4 -0.0173,-9e-4 -0.034,-0.001 -0.0509,-0.001 -0.0173,-8.7e-4 -0.034,-0.001 -0.051,-0.001 -0.0173,-9e-4 -0.034,-10e-4 -0.051,-10e-4 -0.0173,-5.7e-4 -0.034,-0.001 -0.051,-0.001 -0.0173,-8.7e-4 -0.034,-0.001 -0.051,-0.001 -0.0173,-6e-4 -0.034,-10e-4 -0.051,-10e-4 -0.0173,-6e-4 -0.034,-0.001 -0.051,-0.001 -0.0173,-5.9e-4 -0.034,-0.001 -0.051,-0.001 -0.0173,-5.9e-4 -0.034,-10e-4 -0.051,-10e-4 -0.0173,-3.1e-4 -0.034,-9.1e-4 -0.051,-0.001 -0.0173,-6e-4 -0.034,-9.1e-4 -0.051,-0.001 -0.0173,-5.9e-4 -0.034,-8.9e-4 -0.051,-10e-4 -0.0173,-3.1e-4 -0.034,-9.1e-4 -0.051,-0.001 -0.0173,-6e-4 -0.034,-8.9e-4 -0.051,-0.001 -0.0173,-5.9e-4 -0.034,-8.9e-4 -0.051,-10e-4 -0.0173,-5.7e-4 -0.034,-8.7e-4 -0.051,-0.001 -0.0173,-3e-4 -0.034,-9.2e-4 -0.051,-0.001 -0.0173,-3.2e-4 -0.034,-5.9e-4 -0.051,-9e-4 -0.0173,-2.9e-4 -0.034,-5.8e-4 -0.051,-9e-4 -0.0173,-2.9e-4 -0.034,-6e-4 -0.051,-8.9e-4 -0.0173,0 -0.034,-2.9e-4 -0.051,-5.9e-4 -0.0173,-3e-4 -0.034,-6.1e-4 -0.051,-6.1e-4 -0.0173,-3e-4 -0.034,-5.9e-4 -0.051,-5.9e-4 -0.0173,-3.1e-4 -0.034,-3.1e-4 -0.051,-6e-4 -0.0173,0 -0.034,-3.2e-4 -0.051,-3.2e-4 -0.0173,-2.7e-4 -0.034,-2.7e-4 -0.051,-2.7e-4 -0.0173,-2.9e-4 -0.034,-2.9e-4 -0.051,-2.9e-4 -0.0173,-3.2e-4 -0.034,-3.2e-4 -0.051,-3.2e-4 -0.0173,0 -0.034,0 -0.051,0 -0.0173,0 -0.034,0 -0.051,0"
         fill="none"
         stroke="#000000"
         stroke-linecap="round"
         stroke-linejoin="round"
         stroke-miterlimit="10.0375"
         stroke-width="1.4986"
         id="path944"
         style="fill:#000000;fill-opacity:1;stroke:#ffffff;stroke-opacity:1" />
      <use
         x="134.68401"
         xlink:href="#g218"
         y="132.241"
         id="use948"
         width="100%"
         height="100%"
         style="fill:#000000;fill-opacity:1;stroke:#ffffff;stroke-opacity:1"
         transform="matrix(2.985984,0,0,2.985984,-273.23642,-290.89016)" />
      <path
         d="m 140.89173,158.30181 c -0.0173,0.03 -0.0353,0.0582 -0.0527,0.0871 -0.0173,0.03 -0.0355,0.0581 -0.0535,0.087 -0.0173,0.03 -0.036,0.0581 -0.0538,0.0866 -0.0173,0.03 -0.0361,0.0577 -0.0539,0.0863 -0.0173,0.03 -0.0361,0.0571 -0.0547,0.0863 -0.0173,0.03 -0.0362,0.0571 -0.055,0.0862 -0.0173,0.03 -0.037,0.057 -0.0552,0.0857 -0.0173,0.03 -0.0372,0.057 -0.0559,0.0854 -0.0173,0.03 -0.0373,0.0569 -0.0562,0.085 -0.0173,0.0269 -0.0374,0.0569 -0.0563,0.0848 -0.0173,0.0269 -0.0377,0.0563 -0.0569,0.0847 -0.0173,0.0269 -0.0383,0.0562 -0.0571,0.0847 -0.0173,0.0269 -0.0386,0.0562 -0.0577,0.0841 -0.0173,0.0269 -0.0386,0.0559 -0.0581,0.0838 -0.0173,0.0269 -0.0388,0.0559 -0.0584,0.0836 -0.0208,0.0269 -0.039,0.0556 -0.0588,0.0833 -0.0208,0.0269 -0.0395,0.0552 -0.0593,0.083 -0.0208,0.0269 -0.0397,0.0552 -0.0595,0.0827 -0.0208,0.0269 -0.0401,0.055 -0.0599,0.0822 -0.0208,0.0269 -0.0401,0.055 -0.0602,0.0821 -0.0208,0.0269 -0.0403,0.0547 -0.0607,0.0821 -0.0208,0.0269 -0.0406,0.0547 -0.0611,0.082 -0.0208,0.0269 -0.0408,0.0542 -0.0613,0.0818 -0.0208,0.0269 -0.0413,0.0539 -0.0619,0.0811 -0.0208,0.0269 -0.0413,0.0539 -0.0622,0.0809 -0.0208,0.0269 -0.0415,0.0538 -0.0624,0.0806 -0.0208,0.0269 -0.0418,0.0535 -0.0625,0.0805 -0.0208,0.0269 -0.0422,0.0535 -0.0632,0.08 -0.0208,0.0269 -0.0424,0.0533 -0.0636,0.0797 -0.0208,0.0269 -0.0426,0.0527 -0.064,0.0794 -0.0208,0.0269 -0.0426,0.0527 -0.0642,0.0792 -0.0208,0.0269 -0.0432,0.0526 -0.0646,0.0787 -0.0208,0.0269 -0.0433,0.0521 -0.065,0.0786 -0.0208,0.0269 -0.0434,0.0521 -0.0655,0.078 -0.0208,0.0269 -0.0434,0.052 -0.0656,0.0779 -0.0208,0.0269 -0.0438,0.0518 -0.066,0.0776 -0.0208,0.0269 -0.0444,0.0518 -0.0662,0.0775 -0.0208,0.0269 -0.0446,0.0511 -0.0671,0.077 -0.0208,0.0269 -0.0448,0.051 -0.0672,0.0768 -0.025,0.0269 -0.0448,0.051 -0.0674,0.0763 -0.025,0.0269 -0.0449,0.0509 -0.0676,0.0761 -0.025,0.025 -0.0452,0.0509 -0.0683,0.0758 -0.025,0.025 -0.0458,0.0506 -0.0684,0.0757 -0.025,0.025 -0.046,0.0502 -0.0689,0.075 -0.025,0.025 -0.046,0.0498 -0.0692,0.0749 -0.025,0.025 -0.0463,0.0498 -0.0697,0.0746 -0.025,0.025 -0.0466,0.0496 -0.0698,0.0744 -0.025,0.025 -0.0466,0.0494 -0.0701,0.0743 -0.025,0.025 -0.0468,0.0494 -0.0706,0.0736 -0.025,0.025 -0.0474,0.049 -0.0707,0.0734 -0.025,0.025 -0.0475,0.0487 -0.0712,0.0728 -0.025,0.025 -0.0476,0.0484 -0.0718,0.0726 -0.025,0.025 -0.0476,0.0484 -0.0719,0.0722 -0.025,0.025 -0.0481,0.0481 -0.0722,0.0719 -0.025,0.025 -0.0484,0.0476 -0.0726,0.0718 -0.025,0.025 -0.0484,0.0476 -0.0728,0.0714 -0.025,0.025 -0.0487,0.0475 -0.0733,0.0712 -0.025,0.025 -0.049,0.0474 -0.0734,0.0707 -0.025,0.025 -0.0494,0.0468 -0.0736,0.0706 -0.025,0.025 -0.0494,0.0466 -0.0743,0.0698 -0.025,0.025 -0.0496,0.0466 -0.0744,0.0697 -0.025,0.025 -0.0498,0.0463 -0.0746,0.0692 -0.025,0.025 -0.0498,0.046 -0.0749,0.0689 -0.025,0.025 -0.0502,0.0458 -0.075,0.0685 -0.025,0.025 -0.0506,0.0458 -0.0757,0.0684 -0.025,0.025 -0.0506,0.0452 -0.0758,0.0683 -0.025,0.025 -0.0509,0.0449 -0.0761,0.0676 -0.0269,0.025 -0.051,0.0448 -0.0768,0.0672 -0.0269,0.0208 -0.051,0.0448 -0.0768,0.0671 -0.0269,0.0208 -0.0511,0.0446 -0.077,0.0667 -0.0269,0.0208 -0.0518,0.0444 -0.0776,0.0662 -0.0269,0.0208 -0.0518,0.0438 -0.0776,0.066 -0.0269,0.0208 -0.052,0.0434 -0.078,0.0655 -0.0269,0.0208 -0.0521,0.0434 -0.0786,0.065 -0.0269,0.0208 -0.0521,0.0433 -0.0787,0.0647 -0.0269,0.0208 -0.0526,0.0432 -0.0792,0.0646 -0.0269,0.0208 -0.0527,0.0426 -0.0792,0.0642 -0.0269,0.0208 -0.0527,0.0426 -0.0794,0.064 -0.0269,0.0208 -0.0533,0.0424 -0.0797,0.0632 -0.0269,0.0208 -0.0535,0.0422 -0.08,0.0631 -0.0269,0.0208 -0.0535,0.0418 -0.0805,0.0625 -0.0269,0.0208 -0.0538,0.0415 -0.0806,0.0624 -0.0269,0.0208 -0.0539,0.0413 -0.0809,0.0619 -0.0269,0.0208 -0.0539,0.0413 -0.0811,0.0613 -0.0269,0.0208 -0.0542,0.0408 -0.0818,0.0612 -0.0269,0.0208 -0.0542,0.0406 -0.082,0.0611 -0.0269,0.0208 -0.0547,0.0403 -0.0821,0.0607 -0.0269,0.0208 -0.055,0.0401 -0.0822,0.0599 -0.0269,0.0208 -0.055,0.0401 -0.0827,0.0598 -0.0269,0.0208 -0.0552,0.0397 -0.083,0.0595 -0.0269,0.0208 -0.0556,0.0395 -0.0833,0.0588 -0.0269,0.0208 -0.0556,0.039 -0.0833,0.0584 -0.0269,0.0208 -0.0559,0.0388 -0.0836,0.0582 -0.0269,0.0173 -0.0559,0.0386 -0.0838,0.0581 -0.0269,0.0173 -0.0562,0.0386 -0.0841,0.0571 -0.0269,0.0173 -0.0563,0.0383 -0.0847,0.057 -0.0269,0.0173 -0.0563,0.0377 -0.0848,0.0569 -0.0269,0.0173 -0.0569,0.0374 -0.085,0.0562 -0.03,0.0173 -0.0569,0.0373 -0.0854,0.0559 -0.03,0.0173 -0.057,0.0372 -0.0854,0.0556 -0.03,0.0173 -0.057,0.037 -0.0857,0.0552 -0.03,0.0173 -0.0571,0.0362 -0.0862,0.0547 -0.03,0.0173 -0.0571,0.0362 -0.0863,0.0542 -0.03,0.0173 -0.0577,0.0361 -0.0866,0.0539 -0.03,0.0173 -0.0581,0.036 -0.087,0.0538 -0.03,0.0173 -0.0581,0.0355 -0.087,0.0533 -0.03,0.0173 -0.0582,0.0353 -0.0871,0.0527 -0.03,0.0173 -0.0582,0.0348 -0.0874,0.0521 -0.03,0.0173 -0.0584,0.0346 -0.088,0.052 -0.03,0.0173 -0.0584,0.0344 -0.088,0.0518 -0.03,0.0173 -0.0588,0.034 -0.0881,0.051 -0.03,0.0173 -0.0588,0.034 -0.0883,0.0509 -0.03,0.0173 -0.0593,0.0338 -0.0884,0.0506 -0.03,0.0173 -0.0593,0.0334 -0.0892,0.0502 -0.03,0.0173 -0.0595,0.0331 -0.0892,0.0496 -0.03,0.0173 -0.0595,0.0329 -0.0893,0.0494 -0.03,0.0144 -0.0598,0.0325 -0.0895,0.0487 -0.03,0.0144 -0.0598,0.0323 -0.0899,0.0484 -0.03,0.0144 -0.0599,0.0319 -0.0899,0.0481 -0.0301,0.0144 -0.0599,0.0314 -0.09,0.0475 -0.0301,0.0144 -0.0602,0.0312 -0.0906,0.0474 -0.0301,0.0144 -0.0602,0.0312 -0.0906,0.0468 -0.0301,0.0144 -0.0607,0.0311 -0.0908,0.0463 -0.0302,0.0144 -0.0607,0.031 -0.091,0.046 -0.0302,0.0144 -0.0611,0.0302 -0.0913,0.0452 -0.0302,0.0144 -0.0611,0.0301 -0.0913,0.0449 -0.0302,0.0144 -0.0612,0.03 -0.0916,0.0448 -0.031,0.0144 -0.0612,0.03 -0.0922,0.0444 -0.031,0.0144 -0.0612,0.03 -0.0922,0.0438 -0.031,0.0144 -0.0613,0.03 -0.0923,0.0433 -0.031,0.0144 -0.0613,0.03 -0.0924,0.0432 -0.031,0.0144 -0.0619,0.03 -0.0924,0.0426 -0.0311,0.0144 -0.0619,0.0269 -0.093,0.0422 -0.0311,0.0144 -0.0622,0.0269 -0.093,0.0418 -0.0311,0.0144 -0.0622,0.0269 -0.0931,0.0413 -0.0311,0.0144 -0.0622,0.0269 -0.0935,0.0408 -0.0311,0.0144 -0.0624,0.0269 -0.0935,0.0406 -0.0312,0.012 -0.0624,0.0269 -0.0936,0.0401 -0.0312,0.012 -0.0625,0.0269 -0.0942,0.0397 -0.0312,0.012 -0.0625,0.0269 -0.0942,0.039 -0.0312,0.012 -0.0625,0.0269 -0.0943,0.0388 -0.0312,0.012 -0.0631,0.0269 -0.0943,0.0383 -0.0314,0.012 -0.0631,0.025 -0.0944,0.0377 -0.0314,0.012 -0.0632,0.025 -0.0944,0.0374 -0.0314,0.012 -0.0632,0.025 -0.095,0.0372 -0.0314,0.012 -0.0632,0.025 -0.0953,0.037 -0.0314,0.012 -0.0636,0.025 -0.0953,0.0361 -0.0319,0.012 -0.0636,0.025 -0.0956,0.036 -0.0319,0.012 -0.0636,0.025 -0.0956,0.0353 -0.0319,0.012 -0.064,0.025 -0.0958,0.0348 -0.0319,0.012 -0.064,0.025 -0.0958,0.0344 -0.0319,0.012 -0.0642,0.025 -0.096,0.034 -0.0319,0.012 -0.0642,0.025 -0.096,0.0338 -0.0323,0.012 -0.0642,0.0208 -0.0966,0.0331 -0.0323,0.012 -0.0646,0.0208 -0.0966,0.0329 -0.0323,0.012 -0.0646,0.0208 -0.0967,0.0323 -0.0323,0.012 -0.0646,0.0208 -0.0967,0.0319 -0.0323,0.012 -0.0647,0.0208 -0.0971,0.0312 -0.0323,0.01 -0.0647,0.0208 -0.0971,0.0311 -0.0325,0.01 -0.0647,0.0208 -0.0973,0.0302 -0.0325,0.01 -0.065,0.0208 -0.0973,0.0301 -0.0325,0.01 -0.065,0.0208 -0.0974,0.03 -0.0325,0.01 -0.065,0.0208 -0.0974,0.03 -0.0325,0.01 -0.065,0.0173 -0.0982,0.03 -0.0325,0.01 -0.0655,0.0173 -0.0982,0.0269 -0.0325,0.01 -0.0655,0.0173 -0.0982,0.0269 -0.0329,0.01 -0.0655,0.0173 -0.0984,0.0269 -0.0329,0.01 -0.0655,0.0173 -0.0984,0.0269 -0.0329,0.01 -0.0656,0.0173 -0.0985,0.0269 -0.0329,0.01 -0.0656,0.0173 -0.0985,0.0269 -0.0329,0.01 -0.0656,0.0173 -0.0986,0.0269 -0.0329,0.01 -0.066,0.0173 -0.0986,0.025 -0.0329,0.01 -0.066,0.0173 -0.0986,0.025 -0.0329,0.01 -0.066,0.0144 -0.0992,0.025 -0.0331,0.01 -0.066,0.0144 -0.0992,0.025 -0.0331,0.01 -0.066,0.0144 -0.0992,0.025 -0.0331,0.01 -0.0662,0.0144 -0.0995,0.025 -0.0331,0.01 -0.0662,0.0144 -0.0995,0.025 -0.0331,0.002 -0.0662,0.0144 -0.0995,0.0208 -0.0331,0.002 -0.0662,0.0144 -0.0996,0.0208 -0.0331,0.002 -0.0667,0.0144 -0.0996,0.0208 -0.0331,0.002 -0.0667,0.0144 -0.0996,0.0208 -0.0331,0.002 -0.0667,0.0144 -0.1,0.0208 -0.0334,0.002 -0.0667,0.012 -0.1,0.0208 -0.0334,0.002 -0.0667,0.012 -0.1,0.0173 -0.0334,0.002 -0.0671,0.012 -0.10032,0.0173 -0.0334,0.002 -0.0671,0.012 -0.10032,0.0173 -0.0334,0.002 -0.0671,0.012 -0.10032,0.0173 -0.0334,0.002 -0.0671,0.012 -0.10032,0.0173 -0.0334,0.002 -0.0671,0.012 -0.10056,0.0173 -0.0334,0.002 -0.0672,0.012 -0.10056,0.0173 -0.0334,0.002 -0.0672,0.012 -0.10056,0.0144 -0.0334,0.002 -0.0672,0.012 -0.10056,0.0144 -0.0338,0.002 -0.0672,0.01 -0.10092,0.0144 -0.0338,0.002 -0.0672,0.01 -0.10092,0.0144 -0.0338,0.002 -0.0672,0.01 -0.10092,0.0144 -0.0338,0.002 -0.0672,0.01 -0.10092,0.0144 -0.0338,0.002 -0.0674,0.01 -0.10128,0.012 -0.0338,0.001 -0.0674,0.01 -0.10128,0.012 -0.0338,0.001 -0.0674,0.01 -0.10128,0.012 -0.0338,0.001 -0.0674,0.01 -0.10128,0.012 -0.0338,0.001 -0.0674,0.01 -0.10128,0.012 -0.0338,0.001 -0.0674,0.01 -0.10128,0.012 -0.0338,0.001 -0.0674,0.002 -0.10164,0.012 -0.0338,0.001 -0.0674,0.002 -0.10164,0.01 -0.0338,0.001 -0.0676,0.002 -0.10164,0.01 -0.0338,10e-4 -0.0676,0.002 -0.10164,0.01 -0.0338,0.001 -0.0676,0.002 -0.10164,0.01 -0.0338,0.001 -0.0676,0.002 -0.10164,0.01 -0.0338,10e-4 -0.0676,0.002 -0.10164,0.01 -0.0338,0.001 -0.0676,0.002 -0.10176,0.002 -0.034,10e-4 -0.0676,0.002 -0.10176,0.002 -0.034,0.001 -0.0676,0.001 -0.10176,0.002 -0.034,0.001 -0.0676,0.001 -0.10176,0.002 -0.034,10e-4 -0.0676,10e-4 -0.10176,0.002 -0.034,0.001 -0.0676,0.001 -0.10176,0.002 -0.034,0.001 -0.0676,0.001 -0.10176,0.002 -0.034,10e-4 -0.0676,10e-4 -0.10176,10e-4 -0.034,0.001 -0.0676,0.001 -0.10176,0.001 -0.034,0.001 -0.0683,0.001 -0.10176,0.001 -0.034,0.001 -0.0683,0.001 -0.10176,0.001 -0.034,8.5e-4 -0.0683,0.001 -0.10176,0.001 -0.034,7.3e-4 -0.0683,0.001 -0.10176,0.001 -0.034,5.8e-4 -0.0683,10e-4 -0.10176,10e-4 -0.034,4.2e-4 -0.0683,7.3e-4 -0.10176,0.001 -0.034,2.1e-4 -0.0683,4.2e-4 -0.102,5e-4 -0.034,1.1e-4 -0.0683,1.2e-4 -0.10176,5e-5 -0.034,-5e-5 -0.0683,-1.9e-4 -0.10176,-3.6e-4 -0.034,-2.5e-4 -0.0683,-5.2e-4 -0.10176,-8.8e-4 -0.034,-3.4e-4 -0.0683,-8.2e-4 -0.10176,-0.001 -0.034,-5.1e-4 -0.0683,-0.001 -0.10176,-0.001 -0.034,-6.6e-4 -0.0683,-0.001 -0.10176,-0.001 -0.034,-8.1e-4 -0.0683,-10e-4 -0.10176,-10e-4 -0.034,-9.8e-4 -0.0683,-0.001 -0.10176,-0.001 -0.034,-0.001 -0.0683,-0.001 -0.10176,-0.001 -0.034,-0.001 -0.0683,-0.001 -0.10176,-0.001 -0.034,-0.001 -0.0676,-0.001 -0.10176,-0.002 -0.034,-10e-4 -0.0676,-10e-4 -0.10176,-0.002 -0.034,-0.001 -0.0676,-0.001 -0.10176,-0.002 -0.034,-0.001 -0.0676,-0.001 -0.10176,-0.002 -0.034,-10e-4 -0.0676,-10e-4 -0.10176,-0.002 -0.034,-0.001 -0.0676,-0.001 -0.10176,-0.002 -0.034,-0.001 -0.0676,-0.002 -0.10176,-0.002 -0.0338,-10e-4 -0.0676,-0.002 -0.10164,-0.01 -0.0338,-0.001 -0.0676,-0.002 -0.10164,-0.01 -0.0338,-0.001 -0.0676,-0.002 -0.10164,-0.01 -0.0338,-10e-4 -0.0676,-0.002 -0.10164,-0.01 -0.0338,-0.001 -0.0676,-0.002 -0.10164,-0.01 -0.0338,-0.001 -0.0676,-0.002 -0.10164,-0.01 -0.0338,-0.001 -0.0674,-0.002 -0.10164,-0.012 -0.0338,-0.001 -0.0674,-0.002 -0.10164,-0.012 -0.0338,-0.001 -0.0674,-0.01 -0.10128,-0.012 -0.0338,-0.001 -0.0674,-0.01 -0.10128,-0.012 -0.0338,-0.001 -0.0674,-0.01 -0.10128,-0.012 -0.0338,-0.001 -0.0674,-0.01 -0.10128,-0.012 -0.0338,-0.001 -0.0674,-0.01 -0.10128,-0.012 -0.0338,-0.002 -0.0674,-0.01 -0.10092,-0.0144 -0.0338,-0.002 -0.0672,-0.01 -0.10092,-0.0144 -0.0338,-0.002 -0.0672,-0.01 -0.10092,-0.0144 -0.0338,-0.002 -0.0672,-0.01 -0.10092,-0.0144 -0.0338,-0.002 -0.0672,-0.01 -0.10056,-0.0144 -0.0334,-0.002 -0.0672,-0.012 -0.10056,-0.0144 -0.0334,-0.002 -0.0672,-0.012 -0.10056,-0.0173 -0.0334,-0.002 -0.0672,-0.012 -0.10056,-0.0173 -0.0334,-0.002 -0.0671,-0.012 -0.10032,-0.0173 -0.0334,-0.002 -0.0671,-0.012 -0.10032,-0.0173 -0.0334,-0.002 -0.0671,-0.012 -0.10032,-0.0173 -0.0334,-0.002 -0.0671,-0.012 -0.10032,-0.0173 -0.0334,-0.002 -0.0671,-0.012 -0.1,-0.0173 -0.0334,-0.002 -0.0667,-0.012 -0.1,-0.0208 -0.0334,-0.002 -0.0667,-0.012 -0.1,-0.0208 -0.0331,-0.002 -0.0667,-0.0144 -0.0996,-0.0208 -0.0331,-0.002 -0.0667,-0.0144 -0.0996,-0.0208 -0.0331,-0.002 -0.0667,-0.0144 -0.0996,-0.0208 -0.0331,-0.002 -0.0662,-0.0144 -0.0995,-0.0208 -0.0331,-0.002 -0.0662,-0.0144 -0.0995,-0.025 -0.0331,-0.01 -0.0662,-0.0144 -0.0995,-0.025 -0.0331,-0.01 -0.0662,-0.0144 -0.0992,-0.025 -0.0331,-0.01 -0.0662,-0.0144 -0.0992,-0.025 -0.0331,-0.01 -0.066,-0.0144 -0.0992,-0.025 -0.0329,-0.01 -0.066,-0.0144 -0.0986,-0.025 -0.0329,-0.01 -0.066,-0.0173 -0.0986,-0.025 -0.0329,-0.01 -0.0656,-0.0173 -0.0986,-0.0269 -0.0329,-0.01 -0.0656,-0.0173 -0.0985,-0.0269 -0.0329,-0.01 -0.0656,-0.0173 -0.0985,-0.0269 -0.0329,-0.01 -0.0656,-0.0173 -0.0984,-0.0269 -0.0329,-0.01 -0.0655,-0.0173 -0.0984,-0.0269 -0.0325,-0.01 -0.0655,-0.0173 -0.0982,-0.0269 -0.0325,-0.01 -0.0655,-0.0173 -0.0982,-0.0269 -0.0325,-0.01 -0.0655,-0.0173 -0.0982,-0.03 -0.0325,-0.01 -0.065,-0.0173 -0.0974,-0.03 -0.0325,-0.01 -0.065,-0.0208 -0.0974,-0.03 -0.0325,-0.01 -0.065,-0.0208 -0.0973,-0.03 -0.0325,-0.01 -0.0647,-0.0208 -0.0973,-0.0302 -0.0325,-0.01 -0.0647,-0.0208 -0.0971,-0.031 -0.0323,-0.01 -0.0647,-0.0208 -0.0971,-0.0312 -0.0323,-0.012 -0.0646,-0.0208 -0.0971,-0.0314 -0.0323,-0.012 -0.0646,-0.0208 -0.0967,-0.0323 -0.0323,-0.012 -0.0646,-0.0208 -0.0967,-0.0325 -0.0323,-0.012 -0.0642,-0.0208 -0.0966,-0.0331 -0.0323,-0.012 -0.0642,-0.0208 -0.0966,-0.0334 -0.0323,-0.012 -0.0642,-0.025 -0.096,-0.034 -0.0319,-0.012 -0.064,-0.025 -0.096,-0.0344 -0.0319,-0.012 -0.064,-0.025 -0.0958,-0.0348 -0.0319,-0.012 -0.064,-0.025 -0.0956,-0.0353 -0.0319,-0.012 -0.0636,-0.025 -0.0956,-0.0355 -0.0314,-0.012 -0.0636,-0.025 -0.0953,-0.0361 -0.0314,-0.012 -0.0636,-0.025 -0.0953,-0.0362 -0.0314,-0.012 -0.0632,-0.025 -0.095,-0.0372 -0.0314,-0.012 -0.0632,-0.025 -0.095,-0.0373 -0.0314,-0.012 -0.0632,-0.025 -0.0944,-0.0377 -0.0314,-0.012 -0.0631,-0.0269 -0.0943,-0.0383 -0.0312,-0.012 -0.0631,-0.0269 -0.0943,-0.0388 -0.0312,-0.012 -0.0625,-0.0269 -0.0942,-0.039 -0.0312,-0.012 -0.0625,-0.0269 -0.0942,-0.0395 -0.0312,-0.012 -0.0624,-0.0269 -0.0936,-0.0401 -0.0312,-0.012 -0.0624,-0.0269 -0.0936,-0.0403 -0.0311,-0.0144 -0.0624,-0.0269 -0.0935,-0.0408 -0.0311,-0.0144 -0.0622,-0.0269 -0.0931,-0.0413 -0.0311,-0.0144 -0.0622,-0.0269 -0.0931,-0.0415 -0.0311,-0.0144 -0.0622,-0.0269 -0.093,-0.0422 -0.031,-0.0144 -0.0619,-0.0269 -0.0924,-0.0424 -0.031,-0.0144 -0.0619,-0.03 -0.0924,-0.0432 -0.031,-0.0144 -0.0613,-0.03 -0.0923,-0.0433 -0.031,-0.0144 -0.0613,-0.03 -0.0922,-0.0434 -0.031,-0.0144 -0.0612,-0.03 -0.0922,-0.0444 -0.031,-0.0144 -0.0612,-0.03 -0.0916,-0.0446 -0.0302,-0.0144 -0.0611,-0.03 -0.0913,-0.0449 -0.0302,-0.0144 -0.0611,-0.0301 -0.0913,-0.0452 -0.0302,-0.0144 -0.0611,-0.0302 -0.091,-0.0458 -0.0301,-0.0144 -0.0607,-0.031 -0.0908,-0.0463 -0.0301,-0.0144 -0.0607,-0.0311 -0.0908,-0.0466 -0.0301,-0.0144 -0.0602,-0.0312 -0.0906,-0.0468 -0.0301,-0.0144 -0.0602,-0.0314 -0.09,-0.0475 -0.0301,-0.0144 -0.0599,-0.0319 -0.0899,-0.0476 -0.03,-0.0144 -0.0599,-0.0319 -0.0899,-0.0484 -0.03,-0.0144 -0.0598,-0.0325 -0.0895,-0.0487 -0.03,-0.0144 -0.0598,-0.0325 -0.0893,-0.049 -0.03,-0.0173 -0.0595,-0.0329 -0.0893,-0.0496 -0.03,-0.0173 -0.0595,-0.0331 -0.0892,-0.0498 -0.03,-0.0173 -0.0593,-0.0334 -0.0884,-0.0502 -0.03,-0.0173 -0.0593,-0.0338 -0.0883,-0.0509 -0.03,-0.0173 -0.0588,-0.034 -0.0881,-0.051 -0.03,-0.0173 -0.0588,-0.0344 -0.0881,-0.0511 -0.03,-0.0173 -0.0584,-0.0346 -0.088,-0.052 -0.03,-0.0173 -0.0584,-0.0348 -0.0874,-0.0521 -0.03,-0.0173 -0.0582,-0.0348 -0.0871,-0.0526 -0.03,-0.0173 -0.0582,-0.0353 -0.0871,-0.0533 -0.03,-0.0173 -0.0581,-0.0355 -0.087,-0.0535 -0.03,-0.0173 -0.0577,-0.036 -0.0866,-0.0538 -0.03,-0.0173 -0.0577,-0.0361 -0.0863,-0.0542 -0.03,-0.0173 -0.0571,-0.0362 -0.0862,-0.0547 -0.03,-0.0173 -0.0571,-0.037 -0.0857,-0.055 -0.03,-0.0173 -0.057,-0.0372 -0.0857,-0.0556 -0.03,-0.0173 -0.057,-0.0372 -0.0854,-0.0559 -0.03,-0.0173 -0.0569,-0.0373 -0.085,-0.0562 -0.0269,-0.0173 -0.0569,-0.0374 -0.0848,-0.0569 -0.0269,-0.0173 -0.0563,-0.0377 -0.0847,-0.057 -0.0269,-0.0173 -0.0562,-0.0383 -0.0841,-0.0571 -0.0269,-0.0173 -0.0562,-0.0386 -0.0838,-0.0577 -0.0269,-0.0173 -0.0559,-0.0388 -0.0838,-0.0582 -0.0269,-0.0173 -0.0559,-0.0388 -0.0836,-0.0584 -0.0269,-0.0208 -0.0556,-0.039 -0.0833,-0.0588 -0.0269,-0.0208 -0.0556,-0.0395 -0.083,-0.0593 -0.0269,-0.0208 -0.0552,-0.0397 -0.0827,-0.0598 -0.0269,-0.0208 -0.055,-0.0401 -0.0822,-0.0599 -0.0269,-0.0208 -0.055,-0.0403 -0.0821,-0.0602 -0.0269,-0.0208 -0.0547,-0.0403 -0.082,-0.0607 -0.0269,-0.0208 -0.0542,-0.0406 -0.0818,-0.0612 -0.0269,-0.0208 -0.0542,-0.0408 -0.0811,-0.0613 -0.0269,-0.0208 -0.0539,-0.0413 -0.0811,-0.0619 -0.0269,-0.0208 -0.0539,-0.0415 -0.0809,-0.0622 -0.0269,-0.0208 -0.0538,-0.0415 -0.0806,-0.0625 -0.0269,-0.0208 -0.0535,-0.0418 -0.0805,-0.0631 -0.0269,-0.0208 -0.0535,-0.0422 -0.08,-0.0632 -0.0269,-0.0208 -0.0533,-0.0424 -0.0797,-0.0636 -0.0269,-0.0208 -0.0527,-0.0426 -0.0794,-0.064 -0.0269,-0.0208 -0.0527,-0.0432 -0.0792,-0.0646 -0.0269,-0.0208 -0.0526,-0.0432 -0.0787,-0.0647 -0.0269,-0.0208 -0.0521,-0.0433 -0.0786,-0.065 -0.0269,-0.0208 -0.0521,-0.0434 -0.078,-0.0655 -0.0269,-0.0208 -0.052,-0.0438 -0.0779,-0.0656 -0.0269,-0.0208 -0.0518,-0.0444 -0.0776,-0.0662 -0.0269,-0.0208 -0.0518,-0.0444 -0.0775,-0.0667 -0.0269,-0.0208 -0.0511,-0.0446 -0.077,-0.0671 -0.0269,-0.0208 -0.051,-0.0448 -0.0768,-0.0672 -0.0269,-0.025 -0.051,-0.0449 -0.0763,-0.0674 -0.0269,-0.025 -0.0509,-0.0449 -0.0761,-0.0676 -0.025,-0.025 -0.0506,-0.0452 -0.0758,-0.0684 -0.025,-0.025 -0.0506,-0.0458 -0.0757,-0.0685 -0.025,-0.025 -0.0502,-0.046 -0.075,-0.0689 -0.025,-0.025 -0.0498,-0.046 -0.0749,-0.0692 -0.025,-0.025 -0.0496,-0.0463 -0.0746,-0.0697 -0.025,-0.025 -0.0496,-0.0466 -0.0743,-0.0698 -0.025,-0.025 -0.0494,-0.0468 -0.0736,-0.0701 -0.025,-0.025 -0.049,-0.0468 -0.0734,-0.0707 -0.025,-0.025 -0.049,-0.0474 -0.0733,-0.0712 -0.025,-0.025 -0.0487,-0.0475 -0.0728,-0.0714 -0.025,-0.025 -0.0484,-0.0476 -0.0726,-0.0718 -0.025,-0.025 -0.0484,-0.0476 -0.0722,-0.0719"
         fill="none"
         stroke="#000000"
         stroke-linecap="round"
         stroke-linejoin="round"
         stroke-miterlimit="10.0375"
         stroke-width="1.4986"
         id="path950"
         style="fill:#625151;fill-opacity:1;stroke:#ffffff;stroke-opacity:1" />
      <use
         x="129.67599"
         xlink:href="#g230"
         y="165.88699"
         id="use954"
         width="100%"
         height="100%"
         style="fill:#000000;fill-opacity:1;stroke:#ffffff;stroke-opacity:1"
         transform="matrix(2.985984,0,0,2.985984,-273.23642,-290.89016)" />
      <path
         style="fill:#625151;fill-opacity:1;stroke:#ffffff;stroke-width:0.0535084;stroke-miterlimit:10.0375;stroke-dasharray:none;stroke-dashoffset:0;stroke-opacity:1"
         d="m 347.05975,192.05079 c 0.007,-0.0184 0.83563,-3.10649 1.84179,-6.86244 1.00616,-3.75596 1.83562,-6.82901 1.84326,-6.82901 0.008,0 0.83716,3.07305 1.84341,6.82901 1.00624,3.75595 1.8352,6.84405 1.84213,6.86244 0.01,0.0267 -0.73806,0.0334 -3.68519,0.0334 -2.94703,0 -3.69528,-0.007 -3.6854,-0.0334 z"
         id="path1155"
         transform="matrix(1.3603741,0,0,1.3603741,-355.50795,-317.99442)" />
    </g>
    <path
       style="fill:#ffffff;fill-opacity:0.57085;stroke:none;stroke-width:1.71227;stroke-miterlimit:10.0375;stroke-dasharray:none;stroke-dashoffset:0;stroke-opacity:1"
       d=""
       id="path1025"
       transform="translate(56.6209,54.0603)" />
    <path
       style="fill:#ffffff;fill-opacity:0.57085;stroke:none;stroke-width:0.856134;stroke-miterlimit:10.0375;stroke-dasharray:none;stroke-dashoffset:0;stroke-opacity:1"
       d=""
       id="path1031"
       transform="translate(56.6209,54.0603)" />
    <path
       style="fill:#ffffff;fill-opacity:0.57085;stroke:none;stroke-width:0.856134;stroke-miterlimit:10.0375;stroke-dasharray:none;stroke-dashoffset:0;stroke-opacity:1"
       d=""
       id="path1041"
       transform="translate(56.6209,54.0603)" />
    <path
       style="fill:#ffffff;fill-opacity:0.57085;stroke:none;stroke-width:0.214033;stroke-miterlimit:10.0375;stroke-dasharray:none;stroke-dashoffset:0;stroke-opacity:1"
       d=""
       id="path1045"
       transform="translate(56.6209,54.0603)" />
    <path
       style="fill:#ffffff;fill-opacity:0.57085;stroke:none;stroke-width:0.183506;stroke-miterlimit:10.0375;stroke-dasharray:none;stroke-dashoffset:0;stroke-opacity:1"
       d="m 415.82303,401.28895 c 0.65603,-0.0905 1.35795,-0.16312 1.55981,-0.16124 0.20186,0.002 -0.16974,0.0775 -0.82579,0.16805 -0.65603,0.0905 -1.35794,0.16311 -1.5598,0.16125 -0.20187,-0.002 0.16974,-0.0775 0.82578,-0.16806 z"
       id="path1049" />
    <path
       style="fill:#ffffff;fill-opacity:1;stroke:none;stroke-width:0.428067;stroke-miterlimit:10.0375;stroke-dasharray:none;stroke-dashoffset:0;stroke-opacity:1"
       d=""
       id="path1075"
       transform="translate(56.6209,54.0603)" />
    <path
       style="fill:#ffffff;fill-opacity:1;stroke:none;stroke-width:0.428067;stroke-miterlimit:10.0375;stroke-dasharray:none;stroke-dashoffset:0;stroke-opacity:1"
       d=""
       id="path1077"
       transform="translate(56.6209,54.0603)" />
    <path
       style="fill:#ffffff;fill-opacity:1;stroke:none;stroke-width:0.428067;stroke-miterlimit:10.0375;stroke-dasharray:none;stroke-dashoffset:0;stroke-opacity:1"
       d=""
       id="path1079"
       transform="translate(56.6209,54.0603)" />
    <path
       style="fill:#ffffff;fill-opacity:1;stroke:none;stroke-width:0.428067;stroke-miterlimit:10.0375;stroke-dasharray:none;stroke-dashoffset:0;stroke-opacity:1"
       d=""
       id="path1081"
       transform="translate(56.6209,54.0603)" />
    <path
       style="fill:#ffffff;fill-opacity:1;stroke:none;stroke-width:0.428067;stroke-miterlimit:10.0375;stroke-dasharray:none;stroke-dashoffset:0;stroke-opacity:1"
       d=""
       id="path1083"
       transform="translate(56.6209,54.0603)" />
    <path
       style="fill:#ffffff;fill-opacity:1;stroke:none;stroke-width:0.428067;stroke-miterlimit:10.0375;stroke-dasharray:none;stroke-dashoffset:0;stroke-opacity:1"
       d=""
       id="path1085"
       transform="translate(56.6209,54.0603)" />
    <path
       style="fill:#ffffff;fill-opacity:1;stroke:none;stroke-width:0.428067;stroke-miterlimit:10.0375;stroke-dasharray:none;stroke-dashoffset:0;stroke-opacity:1"
       d=""
       id="path1089"
       transform="translate(56.6209,54.0603)" />
    <path
       style="fill:#ffffff;fill-opacity:1;stroke:none;stroke-width:0.151345;stroke-miterlimit:10.0375;stroke-dasharray:none;stroke-dashoffset:0;stroke-opacity:1"
       d=""
       id="path1091"
       transform="translate(56.6209,54.0603)" />
    <path
       style="fill:#000000;fill-opacity:0.57254905;stroke:none;stroke-width:0.151345;stroke-miterlimit:10.0375;stroke-dasharray:none;stroke-dashoffset:0;stroke-opacity:1"
       d=""
       id="path1093"
       transform="translate(56.6209,54.0603)" />
    <g
       id="g1111"
       transform="matrix(0.857375,0,0,0.857375,40.358643,61.20878)">
      <path
         style="fill:#ffffff;fill-opacity:1;stroke:none;stroke-width:0.428067;stroke-miterlimit:10.0375;stroke-dasharray:none;stroke-dashoffset:0;stroke-opacity:1"
         d="m 330.99013,489.6581 v -1.79165 l 1.69528,-0.14788 1.69528,-0.14788 1.42576,-1.64553 c 0.78416,-0.90505 1.50891,-1.79792 1.61055,-1.98418 0.13848,-0.25378 -0.27664,-0.91082 -1.6565,-2.62191 l -1.8413,-2.28326 h -1.35752 -1.35751 v -1.81929 -1.81928 h 4.70873 4.70874 l 0.003,1.87279 c 0.004,2.02954 0.21086,2.70743 0.68342,2.23486 0.33331,-0.3333 0.32347,-0.26724 0.35672,-2.39539 l 0.0268,-1.71226 h 4.06663 4.06664 v 1.81928 1.81929 h -1.27027 c -0.69865,0 -1.50153,0.0879 -1.78419,0.19539 -0.50123,0.19057 -3.15251,3.07695 -3.15251,3.43206 0,0.0982 0.92065,1.29665 2.04589,2.66323 l 2.0459,2.48469 h 1.37864 1.37864 v 1.81928 1.81929 h -4.70874 -4.70874 v -1.889 c 0,-1.75496 -0.0393,-1.9258 -0.55326,-2.40787 l -0.55327,-0.51889 -0.40988,0.50529 c -0.33519,0.41321 -0.40989,0.85201 -0.40989,2.40788 v 1.90259 h -4.06663 -4.06664 z m 14.55428,-0.70947 c 0,-0.0807 -0.36869,-0.58637 -0.8193,-1.12368 -0.45062,-0.53731 -2.43993,-2.95138 -4.4207,-5.36461 -4.33634,-5.28309 -3.92534,-4.81818 -4.10265,-4.64088 -0.17091,0.17092 0.0629,0.47251 5.13185,6.62069 3.44115,4.17377 4.2108,4.99782 4.2108,4.50848 z"
         id="path1087" />
      <path
         style="fill:#ffffff;fill-opacity:1;stroke:none;stroke-width:0.107017;stroke-miterlimit:10.0375;stroke-dasharray:none;stroke-dashoffset:0;stroke-opacity:1"
         d="m 288.35564,434.58626 c -0.65074,-0.65402 -1.79882,-2.01337 -5.36655,-6.35412 -3.20478,-3.89916 -3.56325,-4.38268 -3.34781,-4.51583 0.10049,-0.0621 0.1997,0.0543 4.34956,5.10442 1.63237,1.9865 3.30685,4.02115 3.72106,4.52146 0.73856,0.89208 1.19543,1.49875 1.19543,1.58737 0,0.13142 -0.20834,0.002 -0.55169,-0.3433 z"
         id="path1107"
         transform="translate(56.6209,54.0603)" />
    </g>
    <path
       style="fill:#625151;fill-opacity:1;stroke:none;stroke-width:0.259518;stroke-miterlimit:10.0375;stroke-dasharray:none;stroke-dashoffset:0;stroke-opacity:1"
       d="m 556.89707,395.63376 c 0,-1.97034 0.0421,-3.58244 0.0933,-3.58244 0.19908,0 13.40531,3.56689 13.30907,3.59467 -0.31308,0.0904 -12.74786,3.41035 -13.04554,3.48305 l -0.35683,0.0872 z"
       id="path1117" />
    <path
       style="fill:#625151;fill-opacity:1;stroke:none;stroke-width:0.734028;stroke-miterlimit:10.0375;stroke-dasharray:none;stroke-dashoffset:0;stroke-opacity:1"
       d="m 348.27396,454.59303 c 0.0685,-0.16592 1.52842,-2.72667 3.24421,-5.69053 l 3.11962,-5.38886 2.3686,2.36704 c 1.30273,1.30187 2.29366,2.44084 2.20209,2.53103 -0.47014,0.46299 -11.04079,6.43862 -10.93452,6.18132 z"
       id="path1121" />
    <path
       style="fill:#625151;fill-opacity:1;stroke:none;stroke-width:0.183506;stroke-miterlimit:10.0375;stroke-dasharray:none;stroke-dashoffset:0;stroke-opacity:1"
       d="m 463.39092,316.03955 c -0.47887,-0.0816 -1.14593,-0.50302 -1.40894,-0.89005 -0.97139,-1.42955 0.0506,-3.36088 1.77712,-3.35831 1.85236,0.003 2.81983,2.25935 1.54047,3.5931 -0.50558,0.52709 -1.22058,0.77255 -1.90865,0.65526 z m 0.78277,-1.70186 c 0.17425,-0.17426 0.18787,-0.58677 0.0266,-0.80726 -0.17748,-0.24275 -0.70004,-0.22563 -0.90678,0.0296 -0.20599,0.25438 -0.21299,0.45037 -0.0257,0.71783 0.17167,0.24509 0.68648,0.27905 0.90578,0.0598 z"
       id="path1123" />
    <path
       style="fill:#625151;fill-opacity:1;stroke:none;stroke-width:0.12976;stroke-miterlimit:10.0375;stroke-dasharray:none;stroke-dashoffset:0;stroke-opacity:1"
       d="m 414.26217,373.00551 -4.52861,-1.37084 0.59475,-0.0188 c 1.65567,-0.0523 6.03208,1.2682 8.1705,2.46511 0.3033,0.16979 0.49309,0.30566 0.42171,0.30199 -0.0713,-0.004 -2.16763,-0.62356 -4.65835,-1.37751 z"
       id="path1125" />
    <path
       style="fill:#ffffff;fill-opacity:1;stroke:#ffffff;stroke-width:0.00945903;stroke-miterlimit:10.0375;stroke-dasharray:none;stroke-dashoffset:0;stroke-opacity:1"
       d=""
       id="path1147"
       transform="translate(56.6209,54.0603)" />
    <path
       style="fill:#ffffff;fill-opacity:1;stroke:#ffffff;stroke-width:0.107017;stroke-miterlimit:10.0375;stroke-dasharray:none;stroke-dashoffset:0;stroke-opacity:1"
       d="m 314.18142,160.31027 c 0.0227,-0.0385 1.6044,-2.15886 3.51488,-4.71188 l 3.47358,-4.64185 h 0.23945 0.23946 l -0.12221,0.1739 c -0.0672,0.0957 -1.64736,2.20856 -3.51144,4.69536 l -3.38922,4.52146 -0.24289,0.0165 c -0.18847,0.0128 -0.23364,8.3e-4 -0.20161,-0.0535 z"
       id="path1161"
       transform="translate(56.6209,54.0603)" />
  </g>
</svg>
